<?xml version="1.0" standalone="no"?>
<!DOCTYPE svg PUBLIC "-//W3C//DTD SVG 20010904//EN"
 "http://www.w3.org/TR/2001/REC-SVG-20010904/DTD/svg10.dtd">
<svg version="1.0" xmlns="http://www.w3.org/2000/svg"
 width="1024.000000pt" height="1024.000000pt" viewBox="0 0 1024.000000 1024.000000"
 preserveAspectRatio="xMidYMid meet">

<g transform="translate(0.000000,1024.000000) scale(0.100000,-0.100000)"
fill="#000000" stroke="none">
<path d="M4155 10220 c-75 -17 -145 -39 -190 -60 -11 -5 -35 -12 -53 -15 -30
-6 -158 -60 -205 -86 -10 -5 -22 -7 -27 -4 -6 3 -47 -12 -92 -35 -46 -23 -98
-49 -115 -57 -18 -9 -33 -20 -33 -25 0 -4 -13 -8 -29 -8 -16 0 -31 -6 -34 -14
-3 -7 -21 -16 -40 -20 -57 -11 -57 -13 -143 -600 -20 -133 -37 -250 -38 -261
-7 -48 -18 -85 -26 -85 -5 0 -6 -7 -3 -17 4 -11 3 -14 -5 -9 -7 4 -12 2 -12
-4 0 -6 -4 -8 -10 -5 -5 3 -10 15 -10 26 0 10 -5 19 -11 19 -6 0 -8 8 -5 18 3
9 6 51 6 92 2 99 17 285 41 500 10 96 19 178 19 182 0 4 -9 0 -20 -9 -11 -10
-20 -23 -20 -30 0 -7 -7 -13 -15 -13 -7 0 -19 -8 -24 -17 -6 -10 -11 -15 -11
-12 0 4 -17 3 -37 -2 -21 -5 -49 -11 -64 -14 -14 -2 -67 -18 -118 -35 -51 -17
-99 -29 -107 -26 -8 3 -14 1 -14 -5 0 -6 -7 -9 -15 -5 -27 10 -51 -28 -69
-114 -13 -58 -16 -102 -12 -145 12 -121 -32 -330 -65 -309 -13 7 -13 9 31
-106 21 -57 37 -106 35 -109 -7 -6 -131 274 -182 409 -29 77 -70 150 -84 150
-6 0 -8 -8 -5 -17 3 -10 10 -94 16 -187 13 -192 4 -248 -51 -305 -32 -34 -36
-47 -16 -54 6 -3 1 -6 -12 -6 -16 -1 -21 -5 -17 -16 3 -8 1 -15 -4 -15 -5 0
-7 -6 -5 -13 3 -6 -7 -21 -21 -32 -14 -11 -30 -30 -35 -43 -5 -13 -18 -26 -28
-29 -16 -4 -32 -39 -35 -78 -1 -5 -7 -14 -13 -18 -7 -4 -13 -16 -13 -26 0 -11
-7 -21 -15 -25 -9 -3 -15 -19 -16 -38 0 -27 -2 -29 -9 -13 -6 17 -9 14 -15
-20 -5 -21 -16 -48 -27 -59 -10 -11 -17 -27 -16 -36 2 -8 -4 -24 -14 -34 -10
-11 -18 -26 -18 -33 0 -7 -4 -13 -8 -13 -5 0 -7 -13 -4 -30 3 -23 0 -30 -12
-30 -9 0 -16 -4 -16 -10 0 -5 4 -10 9 -10 5 0 4 -14 -2 -30 -6 -17 -17 -28
-23 -26 -15 6 -57 -106 -44 -114 5 -3 0 -14 -11 -23 -13 -12 -18 -24 -14 -37
5 -15 2 -20 -13 -20 -15 0 -21 -9 -26 -38 -3 -22 -15 -51 -26 -65 -11 -14 -20
-34 -20 -45 0 -11 -7 -28 -16 -36 -8 -9 -11 -16 -6 -16 5 0 10 -11 10 -25 0
-14 -4 -25 -9 -25 -5 0 -9 -9 -9 -19 0 -10 -7 -22 -16 -25 -8 -3 -12 -10 -9
-16 4 -6 12 -7 18 -4 7 4 3 -3 -8 -14 -45 -47 -52 -72 -25 -84 10 -4 5 -7 -13
-7 -16 -1 -26 -5 -22 -11 4 -6 10 -8 14 -6 4 3 8 -1 8 -8 0 -8 -6 -12 -14 -9
-7 3 -13 1 -13 -5 0 -6 -23 -13 -51 -17 -89 -12 -46 -16 57 -5 187 21 404 79
809 220 218 75 335 108 625 175 177 41 446 88 463 82 6 -3 -1 -6 -18 -6 -16
-1 -37 -6 -45 -12 -11 -8 -6 -9 20 -4 52 9 368 55 381 55 5 0 7 -4 4 -10 -4
-6 5 -8 22 -6 15 2 20 1 11 -1 -10 -2 -18 -11 -18 -19 0 -8 -4 -13 -9 -10 -5
3 -11 -4 -15 -17 -8 -32 -7 -47 3 -47 5 0 7 8 4 19 -3 10 0 22 6 25 10 6 16
-20 12 -46 0 -5 5 -8 11 -9 7 -1 2 -5 -12 -10 -18 -6 -11 -7 25 -4 28 3 133
14 235 25 317 33 523 42 850 38 226 -2 321 -7 337 -16 12 -7 50 -15 84 -17 61
-5 94 -15 49 -15 -35 0 -20 -7 30 -15 72 -11 61 -17 -20 -11 l-75 5 80 -11
c59 -8 80 -8 83 1 2 6 8 11 13 11 6 0 7 -5 3 -11 -4 -8 4 -9 27 -4 23 4 30 3
20 -4 -11 -7 -1 -11 35 -16 27 -4 65 -11 84 -16 32 -8 32 -8 -10 -4 -290 30
-926 38 -1225 16 -277 -20 -862 -99 -945 -127 -13 -5 -13 -7 1 -17 18 -13 9
-27 -24 -40 -10 -4 -16 -10 -13 -15 2 -4 -6 -9 -20 -10 -13 -1 -24 3 -24 10 0
6 -3 8 -6 5 -4 -4 -2 -13 5 -20 8 -10 27 -13 65 -10 33 2 57 -1 61 -7 4 -6 1
-11 -6 -9 -29 3 -38 -2 -33 -18 5 -15 4 -16 -5 -3 -10 13 -14 11 -31 -10 -11
-14 -18 -33 -16 -42 2 -9 -3 -26 -11 -38 -12 -17 -17 -19 -24 -9 -7 11 -9 10
-9 -4 0 -14 -5 -17 -20 -12 -16 5 -20 2 -20 -15 0 -15 8 -22 30 -26 17 -4 30
-12 30 -19 0 -8 -8 -11 -20 -8 -11 3 -20 0 -20 -6 0 -6 7 -11 15 -11 22 0 18
-17 -5 -23 -36 -9 -22 -26 18 -20 28 4 34 3 26 -6 -6 -7 -31 -15 -55 -17 -52
-6 -82 -21 -73 -36 5 -8 0 -9 -16 -5 -17 4 -20 3 -11 -6 9 -9 16 -9 31 1 17
10 20 10 20 -3 0 -8 -5 -15 -12 -15 -9 0 -9 -3 0 -12 16 -16 15 -55 0 -61 -7
-3 -2 -6 12 -6 18 -1 21 -4 11 -10 -22 -14 -4 -68 27 -80 l27 -9 -33 -1 c-21
-1 -31 -5 -26 -12 3 -6 17 -8 29 -5 13 3 26 2 30 -3 3 -5 -7 -12 -22 -14 -24
-3 -23 -4 8 -6 33 -1 35 -3 36 -35 1 -25 -4 -36 -16 -39 -14 -4 -14 -5 2 -6 9
0 17 -7 17 -15 0 -8 5 -18 11 -22 8 -5 10 1 7 20 -4 17 -1 25 6 23 6 -2 12
-22 14 -45 3 -45 18 -56 25 -19 3 16 5 14 6 -10 0 -17 -5 -34 -11 -36 -7 -3
-3 -6 9 -6 12 -1 30 -12 41 -26 11 -14 25 -25 31 -25 6 0 11 -7 11 -15 0 -8 5
-15 10 -15 6 0 10 -7 10 -15 0 -8 -4 -15 -10 -15 -5 0 -10 -4 -10 -10 0 -5 11
-10 24 -10 30 0 56 -9 56 -21 0 -10 48 -59 58 -59 19 0 61 -26 65 -40 2 -9 23
-22 46 -28 22 -7 41 -18 41 -23 0 -6 7 -9 15 -5 10 3 15 -1 15 -13 0 -14 6
-17 30 -13 22 3 32 0 37 -14 7 -16 20 -19 95 -20 58 -1 94 -6 104 -15 10 -8
31 -18 48 -24 21 -7 31 -16 31 -30 0 -16 7 -20 30 -20 24 0 31 -5 35 -25 3
-15 14 -26 30 -30 14 -3 25 -11 25 -18 0 -7 3 -11 7 -9 4 1 15 -8 23 -20 9
-13 22 -23 28 -23 7 0 17 -10 22 -22 6 -14 20 -24 35 -25 25 -3 25 -3 3 7 -36
15 -27 18 17 7 27 -8 36 -14 27 -20 -9 -7 -9 -10 1 -14 18 -7 15 -26 -4 -19
-8 3 -13 2 -10 -3 6 -9 70 -22 130 -26 21 -1 41 -6 45 -11 3 -5 20 -10 36 -11
94 -5 134 -21 118 -47 -3 -5 -2 -7 3 -4 5 3 20 1 34 -5 14 -5 38 -11 54 -12
16 -2 31 -7 35 -11 3 -5 42 -9 86 -9 44 0 89 -5 100 -9 11 -5 22 -10 25 -10 3
-1 18 -10 33 -20 16 -11 32 -15 35 -10 12 16 32 15 25 -2 -5 -13 -2 -15 15
-10 11 4 23 2 27 -4 4 -6 12 -7 24 0 10 5 31 6 46 2 16 -5 58 -4 94 1 129 19
309 8 220 -13 -19 -5 -17 -8 18 -25 30 -15 37 -22 28 -30 -16 -13 -27 -45 -15
-45 23 0 7 -18 -21 -24 -20 -4 -28 -10 -23 -17 5 -9 0 -10 -14 -7 -12 4 -22 3
-22 -2 0 -12 65 -22 94 -14 17 4 26 2 26 -6 0 -8 9 -10 25 -6 17 4 25 2 25 -7
0 -8 15 -13 43 -13 108 -3 157 -7 157 -15 0 -5 28 -9 63 -9 34 0 103 -7 152
-16 50 -8 176 -17 280 -20 105 -3 200 -6 213 -7 22 -1 23 -4 26 -72 1 -29 3
-30 56 -36 30 -3 42 -6 27 -7 -16 -1 -25 -6 -22 -12 6 -9 -22 -15 -54 -11 -7
2 -11 -4 -8 -11 2 -7 8 -12 13 -11 5 0 15 -5 22 -13 7 -8 8 -14 2 -14 -5 0
-10 -7 -10 -15 0 -9 9 -15 23 -15 17 -1 19 -2 7 -9 -8 -5 -147 -13 -308 -17
-253 -6 -292 -9 -292 -22 0 -13 -2 -13 -13 2 -10 13 -21 16 -55 10 -23 -3 -39
-10 -36 -15 9 -15 -8 -10 -28 8 -11 9 -18 11 -18 5 0 -7 5 -12 11 -12 5 0 7
-6 3 -12 -4 -7 -3 -10 1 -5 5 4 19 0 31 -8 17 -11 25 -12 30 -3 5 7 3 8 -6 3
-9 -6 -11 -4 -5 5 6 9 4 11 -5 5 -9 -6 -11 -4 -5 4 6 10 11 9 23 -3 13 -12 13
-18 2 -30 -7 -9 -19 -16 -26 -16 -8 0 -14 -5 -14 -11 0 -6 -7 -17 -15 -25 -8
-9 -15 -12 -15 -7 0 5 5 14 11 20 8 8 7 13 -2 18 -7 5 -10 4 -6 -2 4 -6 -13
-13 -44 -17 -30 -4 -58 -15 -71 -28 -16 -16 -29 -19 -64 -15 -24 2 -46 2 -49
-2 -7 -6 -10 -7 -42 -10 -16 -2 -16 -3 -2 -9 14 -6 15 -9 4 -19 -10 -10 -14
-9 -19 2 -3 9 -19 15 -38 15 -23 0 -29 -3 -19 -9 10 -7 1 -11 -32 -16 -55 -8
-113 0 -120 18 -4 9 -6 9 -6 0 -1 -7 -13 -13 -27 -13 -17 0 -23 4 -18 13 6 9
4 9 -8 -1 -12 -9 -32 -10 -84 -3 -38 6 -79 8 -91 5 -11 -3 -66 1 -121 10 -54
9 -126 16 -158 16 -58 0 -59 1 -79 38 -14 26 -28 38 -47 40 -38 4 -65 -13 -73
-46 -3 -16 -13 -29 -23 -29 -9 -1 -69 -10 -132 -19 -63 -9 -146 -18 -185 -20
-70 -3 -189 -19 -170 -23 6 -1 1 -7 -10 -12 -14 -6 -1 -8 41 -4 45 4 64 2 72
-8 12 -14 6 -27 -12 -27 -6 0 -4 4 4 10 32 20 -17 21 -66 0 l-49 -20 50 6 50
6 -30 -21 c-16 -12 -34 -21 -39 -21 -19 0 -172 -74 -179 -86 -4 -8 -15 -14
-22 -14 -8 0 -15 -4 -15 -9 0 -5 -16 -12 -36 -16 -20 -3 -60 -17 -90 -31 -29
-13 -58 -24 -65 -24 -6 0 -43 -11 -82 -25 -39 -14 -76 -24 -84 -21 -7 3 -13 2
-13 -3 0 -13 -43 -21 -56 -10 -6 5 -19 6 -29 3 -17 -7 -17 -6 0 19 9 15 21 24
26 21 12 -7 31 5 24 16 -3 4 -33 0 -67 -11 -34 -10 -64 -17 -65 -15 -4 4 36
21 167 72 47 18 77 33 67 34 -10 0 -30 -6 -46 -14 -15 -8 -48 -14 -74 -13 -26
1 -42 4 -37 5 6 2 8 8 5 12 -3 5 -12 7 -20 3 -8 -3 -23 -2 -33 3 -9 4 -19 8
-22 8 -15 4 -38 23 -43 36 -3 9 -6 3 -6 -12 -1 -16 4 -28 9 -28 6 0 10 -4 10
-10 0 -23 -21 -8 -26 19 -6 27 -10 30 -40 27 -34 -2 -46 8 -21 17 10 4 10 6 0
6 -7 1 -13 10 -13 20 0 11 -9 21 -24 25 -13 3 -26 16 -29 28 -6 22 -7 22 -21
3 -11 -14 -18 -17 -23 -8 -5 6 -35 21 -68 33 -33 12 -69 26 -81 31 -11 6 -24
9 -30 8 -29 -5 -94 2 -89 11 3 6 -1 10 -9 10 -9 0 -16 -4 -16 -10 0 -5 -9 -10
-21 -10 -11 0 -18 4 -15 9 10 15 -22 33 -46 26 -16 -4 -19 -3 -9 3 11 8 11 10
0 15 -12 4 -11 7 1 16 13 10 13 11 0 11 -13 0 -13 1 0 11 11 7 -1 8 -40 3 -30
-4 -71 -8 -90 -9 -42 -1 -63 -12 -54 -28 3 -7 -3 -2 -14 11 -27 29 -56 28 -70
-3 -19 -42 -29 -28 -36 48 -37 407 -53 1038 -38 1464 12 324 32 642 52 798 6
44 11 99 13 122 1 24 8 45 15 48 17 6 15 35 -2 35 -27 0 -189 -51 -578 -182
-333 -111 -397 -136 -421 -161 -15 -16 -26 -35 -24 -41 6 -17 41 -8 171 46
186 76 426 168 439 168 7 -1 -35 -19 -93 -41 -257 -97 -482 -206 -522 -252
-30 -35 -34 -47 -16 -47 6 0 4 -7 -5 -18 -10 -10 -17 -22 -17 -26 0 -9 66 3
108 21 25 10 32 11 32 1 0 -9 3 -8 10 2 17 26 29 -7 17 -47 -11 -37 -36 -56
-135 -108 -29 -15 -49 -31 -46 -36 3 -5 -2 -6 -10 -3 -12 5 -16 0 -16 -19 0
-14 -6 -28 -12 -31 -10 -5 -10 -7 0 -12 10 -5 10 -11 -3 -31 -10 -15 -15 -39
-13 -59 2 -19 0 -34 -4 -34 -4 0 -7 -10 -7 -22 4 -110 -4 -255 -14 -267 -10
-12 -9 -13 2 -7 11 7 12 -5 7 -70 -16 -193 -26 -484 -16 -484 3 0 5 -18 5 -40
0 -22 -3 -40 -7 -40 -3 0 -4 -57 -2 -127 3 -71 4 -153 4 -183 -2 -74 -2 -60 5
-190 3 -63 7 -128 9 -145 11 -79 18 -209 11 -203 -10 10 -22 63 -54 259 -17
96 -36 188 -43 205 -12 26 -14 13 -18 -121 -3 -90 -9 -150 -15 -150 -6 0 -9
-66 -8 -183 1 -106 -2 -180 -7 -177 -5 3 -10 -16 -12 -42 l-4 -48 -19 43 c-19
45 -35 55 -35 22 0 -25 -23 -100 -30 -100 -12 0 -31 98 -40 195 -5 55 -16 219
-24 365 -17 285 -34 440 -47 440 -5 0 -9 -12 -9 -27 0 -17 -4 -23 -9 -18 -11
11 -27 130 -36 255 -7 106 -35 264 -45 253 -13 -14 -40 -106 -40 -135 0 -43
-17 -33 -24 15 -33 226 -50 493 -50 789 -1 175 -4 318 -8 318 -5 0 -8 -5 -8
-12 0 -6 -34 -46 -75 -89 -56 -57 -75 -84 -76 -105 -1 -16 -4 -162 -8 -324
l-6 -295 -35 -44 -35 -43 0 -189 0 -189 29 -24 c29 -22 30 -26 41 -160 11
-140 11 -140 57 -167 32 -18 47 -66 58 -180 13 -148 18 -167 41 -180 29 -15
33 8 20 114 -13 103 -16 225 -7 234 15 16 28 -23 51 -159 13 -80 31 -179 39
-219 8 -41 27 -139 41 -219 54 -301 83 -417 133 -518 36 -74 55 -87 36 -26
-16 54 -19 241 -4 264 5 8 10 11 10 5 0 -5 9 -68 20 -140 23 -148 74 -290 121
-335 16 -15 25 -30 21 -34 -4 -4 -2 -6 3 -4 6 2 29 -14 51 -35 263 -242 783
-502 1319 -658 424 -123 816 -196 1335 -246 264 -26 319 -28 740 -28 490 0
674 11 1075 61 497 63 951 170 1350 319 170 63 205 78 387 162 54 24 103 41
109 37 7 -4 9 -3 6 3 -9 14 148 104 167 97 7 -3 17 -1 21 5 3 7 0 8 -9 5 -32
-12 -14 6 32 33 26 15 51 33 56 41 5 9 11 11 15 4 4 -6 40 20 86 63 44 40 84
71 90 68 5 -4 7 -3 3 2 -4 4 11 28 32 53 22 25 38 47 36 50 -3 2 2 18 10 34 9
17 13 39 11 49 -3 11 -2 34 3 52 19 73 32 609 19 748 -5 47 -11 349 -14 670
-8 809 -16 1019 -37 1019 -7 0 -6 5 1 14 8 10 9 16 1 21 -5 3 -10 28 -10 55 0
27 -4 51 -9 55 -6 3 -8 14 -6 25 2 11 -6 31 -18 45 -19 21 -160 96 -274 146
-40 17 -55 44 -21 36 13 -3 32 -1 43 3 18 8 19 9 1 9 -12 1 -16 6 -12 17 4 10
1 14 -6 11 -7 -2 -13 -10 -12 -18 1 -11 -10 -13 -45 -9 -45 4 -45 5 -9 8 32 3
78 32 50 32 -18 0 -65 20 -60 26 3 2 69 -20 146 -51 150 -58 153 -59 151 -47
-3 20 3 31 19 35 15 4 15 5 -2 6 -10 1 -16 6 -13 14 14 37 -86 95 -393 227
-91 40 -191 81 -223 92 -32 11 -56 22 -54 24 7 7 172 -54 381 -142 283 -119
298 -125 291 -114 -3 5 -1 10 5 10 6 0 8 5 4 11 -4 8 1 9 17 5 21 -6 22 -6 6
4 -15 9 -22 8 -36 -4 -23 -21 -37 -21 -17 0 21 21 20 57 -1 75 -31 25 -65 38
-158 59 -98 22 -507 151 -501 158 3 2 46 -10 98 -26 356 -115 537 -152 753
-152 135 0 208 13 264 46 37 22 45 38 26 54 -11 9 -21 7 -43 -9 -35 -25 -77
-41 -116 -47 -27 -3 -28 -3 -10 11 18 14 17 14 -10 15 -21 0 -27 4 -22 15 3 8
1 15 -4 15 -6 0 -10 7 -10 16 0 8 -4 12 -10 9 -5 -3 -10 2 -11 12 -2 59 -15
111 -34 133 -7 8 -12 22 -13 30 -1 48 -22 136 -22 91 0 -7 -4 -9 -10 -6 -5 3
-10 16 -10 29 0 12 -3 26 -6 29 -4 4 -8 23 -10 44 -2 20 -10 40 -18 45 -8 5
-12 16 -9 28 3 11 0 26 -6 34 -7 8 -11 18 -10 22 5 28 -3 54 -16 54 -8 0 -15
7 -15 17 0 9 -11 40 -25 68 -13 29 -26 67 -27 84 -2 24 -8 33 -25 37 -13 4
-20 10 -17 16 3 5 1 15 -5 22 -7 8 -10 18 -9 24 2 5 -10 22 -25 36 -22 21 -28
33 -23 51 5 18 2 25 -9 25 -8 0 -15 4 -15 9 0 5 -7 17 -17 26 -9 9 -16 30 -16
45 0 21 -4 27 -15 22 -11 -4 -14 -1 -9 11 6 15 -15 42 -25 32 -3 -3 -8 8 -12
25 -3 18 -10 29 -16 25 -5 -3 -10 -1 -10 6 0 17 -71 119 -82 119 -5 0 -6 5 -3
10 3 6 -1 13 -10 16 -13 6 -14 8 -3 15 9 6 9 9 1 9 -16 0 -63 51 -63 67 0 7
-5 13 -10 13 -6 0 -16 11 -22 25 -6 14 -22 28 -35 31 -16 4 -23 13 -23 30 0
13 -6 24 -13 24 -7 0 -18 9 -25 20 -7 12 -17 18 -23 15 -5 -4 -9 -3 -8 2 3 20
-15 52 -32 56 -11 3 -19 14 -19 27 0 11 -4 18 -10 15 -5 -3 -10 3 -10 14 0 11
-7 24 -16 29 -14 8 -16 20 -12 63 3 29 11 55 17 57 6 2 8 8 5 13 -3 6 0 16 6
24 14 16 4 55 -13 55 -7 0 -25 -14 -41 -30 -33 -33 -52 -39 -41 -12 36 84 42
116 24 128 -8 4 -9 -1 -4 -17 4 -13 4 -21 0 -17 -18 17 -61 -64 -75 -142 -4
-25 -11 -54 -15 -65 -5 -16 -5 -17 4 -5 16 22 13 8 -4 -28 -10 -20 -21 -29
-30 -25 -11 4 -14 -2 -11 -23 2 -16 1 -23 -1 -16 -2 6 -9 12 -14 12 -5 0 -9 9
-9 20 0 11 4 20 8 20 5 0 9 15 9 33 0 17 3 62 5 99 5 67 -14 158 -33 158 -5 0
-12 18 -15 40 -6 40 -18 52 -27 28 -2 -7 0 -24 4 -38 13 -39 29 -162 22 -173
-6 -10 -48 115 -60 176 -3 15 -9 27 -14 27 -5 0 -9 9 -9 20 0 11 -4 20 -10 20
-5 0 -10 -9 -10 -20 0 -22 -27 -27 -58 -11 -9 5 -42 20 -72 33 -135 60 -160
72 -160 77 0 10 -52 31 -61 25 -5 -3 -9 -1 -9 4 0 5 -7 9 -15 10 -8 1 -22 3
-30 4 -8 1 -15 7 -15 15 0 7 -6 13 -13 13 -7 0 -34 42 -60 94 -71 139 -79 135
-71 -28 5 -92 4 -135 -4 -140 -11 -7 -40 79 -61 183 -14 65 -47 102 -111 121
-25 8 -57 22 -72 33 -21 13 -28 15 -28 5 -1 -8 -6 -6 -15 6 -8 10 -19 15 -25
11 -7 -4 -15 -4 -19 1 -6 9 -36 22 -103 45 -18 7 -41 16 -50 20 -10 5 -30 9
-46 9 -15 0 -44 11 -64 25 -20 14 -43 25 -51 25 -8 0 -31 7 -50 15 -29 12 -88
15 -297 15 l-260 0 0 -35 c0 -32 -2 -35 -19 -25 -16 8 -20 6 -24 -8 -3 -9 -5
-1 -6 18 -1 20 -5 30 -9 23 -6 -9 -33 -8 -117 3 -159 21 -169 22 -182 11 -9
-6 -13 -6 -13 2 0 8 -55 11 -185 11 l-185 0 0 -49 c0 -34 -4 -51 -15 -55 -9
-3 -15 1 -15 11 0 13 -3 13 -15 3 -8 -7 -28 -10 -45 -8 -20 3 -30 0 -30 -9 0
-8 -13 -13 -39 -13 -22 0 -42 -5 -44 -12 -3 -8 -6 -6 -6 5 -2 28 -21 19 -21
-10 -1 -25 -2 -26 -14 -10 -16 21 -26 22 -26 2 0 -17 -21 -20 -37 -4 -15 15
-53 -10 -54 -36 0 -20 0 -20 -9 0 -5 11 -9 57 -9 103 l-1 82 -112 -1 c-71 0
-143 -7 -193 -19z m320 -595 c4 -30 11 -53 14 -50 12 7 83 -18 88 -31 8 -21
34 -4 28 17 -4 11 -2 19 3 19 13 0 23 -27 16 -45 -7 -17 42 -33 58 -17 11 11
48 4 48 -9 0 -5 -6 -6 -14 -3 -8 3 -17 1 -20 -4 -3 -5 4 -12 16 -15 24 -7 41
10 33 31 -2 6 0 12 5 12 16 0 23 -42 9 -51 -7 -4 -10 -11 -6 -15 4 -4 13 -2
19 4 18 18 26 15 31 -10 2 -13 5 0 6 29 0 28 5 54 10 57 16 10 21 -165 21
-786 l0 -626 -82 -6 c-46 -3 -144 -9 -218 -15 -74 -5 -136 -8 -138 -6 -10 9
34 1532 44 1559 12 30 23 16 29 -39z m105 -29 c0 -3 -4 -8 -10 -11 -5 -3 -10
-1 -10 4 0 6 5 11 10 11 6 0 10 -2 10 -4z m67 -63 c-3 -10 -5 -4 -5 12 0 17 2
24 5 18 2 -7 2 -21 0 -30z m2993 -158 c0 -8 -4 -15 -10 -15 -5 0 -7 7 -4 15 4
8 8 15 10 15 2 0 4 -7 4 -15z m-2404 -263 c3 -45 10 -80 15 -76 5 3 10 -12 10
-33 l2 -38 7 40 c4 22 8 34 9 28 0 -7 6 -13 12 -13 6 0 9 6 6 13 -3 8 1 14 9
14 20 0 17 -14 -6 -39 -30 -32 -27 -53 5 -32 14 9 25 20 25 25 0 5 7 6 15 3 8
-4 15 -13 15 -21 0 -9 -6 -13 -14 -10 -14 6 -32 -21 -21 -31 3 -3 5 0 5 6 0 6
13 10 30 9 26 -2 30 -6 30 -31 0 -22 4 -27 16 -22 19 7 41 -3 26 -13 -6 -3 17
-6 51 -7 51 -1 63 -5 75 -23 8 -11 21 -21 28 -21 8 0 15 -8 15 -17 1 -10 5 0
9 22 l7 40 2 -42 c0 -23 -4 -44 -9 -46 -6 -3 -5 -4 2 -3 8 1 15 23 18 52 3 27
9 -81 13 -241 9 -365 11 -485 6 -489 -2 -2 -58 1 -124 5 -66 4 -162 8 -212 8
l-93 1 2 578 c1 317 3 557 5 532 1 -25 5 -82 9 -128z m2314 58 c0 -5 -2 -10
-4 -10 -3 0 -8 5 -11 10 -3 6 -1 10 4 10 6 0 11 -4 11 -10z m-24 -48 c-18 -16
-18 -16 -6 6 6 13 14 21 18 18 3 -4 -2 -14 -12 -24z m-2059 -168 c-3 -3 -12
-4 -19 -1 -8 3 -5 6 6 6 11 1 17 -2 13 -5z m-22 -31 c18 -14 18 -15 2 -9 -10
3 -25 6 -33 6 -9 0 -12 5 -9 10 8 14 16 12 40 -7z m-1964 -440 c13 -16 12 -17
-3 -4 -10 7 -18 15 -18 17 0 8 8 3 21 -13z m9 -58 c0 -5 -5 -3 -10 5 -5 8 -10
20 -10 25 0 6 5 3 10 -5 5 -8 10 -19 10 -25z m397 20 c0 -8 -4 -12 -9 -9 -5 3
-6 10 -3 15 9 13 12 11 12 -6z m-347 -50 c0 -2 -7 -5 -15 -9 -9 -3 -15 0 -15
9 0 9 6 12 15 9 8 -4 15 -7 15 -9z m-300 -5 c0 -5 -2 -10 -4 -10 -3 0 -8 5
-11 10 -3 6 -1 10 4 10 6 0 11 -4 11 -10z m-33 -22 c-3 -8 -6 -5 -6 6 -1 11 2
17 5 13 3 -3 4 -12 1 -19z m183 3 c0 -11 5 -23 10 -26 6 -3 10 1 10 9 0 9 5
16 11 16 6 0 9 -6 6 -14 -3 -8 1 -20 10 -28 14 -11 15 -10 9 9 -4 12 -3 24 2
27 15 9 22 -50 10 -84 -5 -17 -8 -34 -4 -37 11 -12 15 3 22 76 4 39 11 68 15
64 12 -12 15 -93 6 -120 -5 -15 -4 -23 2 -23 6 0 11 9 11 19 0 36 12 50 46 57
39 7 84 -2 84 -16 0 -6 -9 -10 -20 -10 -11 0 -20 -4 -20 -10 0 -5 23 -10 50
-10 41 0 50 -3 49 -17 0 -10 -3 -13 -6 -6 -3 9 -11 7 -25 -7 -21 -19 -50 -22
-65 -6 -5 5 4 6 20 2 16 -4 27 -2 27 4 0 12 -36 12 -64 1 -19 -7 -19 -8 2 -13
15 -4 20 -12 17 -27 -2 -12 1 -20 8 -18 7 1 11 -4 10 -10 -4 -16 9 -17 24 -2
7 7 15 6 26 -5 10 -10 18 -12 22 -6 9 15 -5 32 -21 26 -7 -3 -16 -1 -19 5 -4
5 -3 9 2 8 20 -3 25 2 13 16 -10 12 -10 15 4 15 9 0 16 -8 17 -17 1 -10 7 0
14 22 l13 40 1 -63 c1 -45 -2 -61 -11 -56 -7 5 -8 3 -3 -6 5 -9 4 -11 -3 -6
-8 5 -10 1 -6 -11 6 -17 6 -17 -8 1 -8 10 -22 16 -34 14 -17 -4 -16 -6 7 -16
20 -8 26 -18 27 -41 1 -28 -2 -31 -29 -31 -16 0 -29 -5 -29 -11 0 -6 -6 -9
-12 -6 -7 2 -12 10 -11 16 2 6 -2 11 -8 11 -7 0 -9 -10 -4 -27 8 -33 16 -42
22 -25 6 15 39 16 49 0 5 -8 2 -9 -11 -5 -9 4 -23 3 -29 -2 -6 -4 -26 -11 -43
-13 -24 -3 -33 -1 -33 10 0 10 -5 9 -17 -6 -12 -13 -42 -23 -93 -32 -41 -7
-119 -23 -173 -36 -53 -14 -102 -22 -107 -19 -6 3 -10 2 -10 -3 0 -5 -23 -14
-51 -20 -72 -17 -95 -14 -29 4 30 8 59 19 64 24 11 11 -1 30 -20 30 -17 0 -19
-16 -1 -24 6 -3 -1 -2 -18 1 -28 6 -62 30 -54 37 2 2 19 13 38 24 l34 21 -37
-3 c-29 -3 -36 0 -32 11 4 8 6 21 6 29 0 9 11 14 29 14 26 0 29 3 27 30 -1 17
1 30 6 30 4 0 8 4 8 9 0 6 -17 12 -37 14 l-38 4 42 1 c33 2 41 5 37 17 -4 10
0 15 11 15 13 0 16 6 11 24 -5 22 -2 25 26 29 27 3 25 4 -12 5 -32 2 -41 5
-33 13 6 6 9 18 6 25 -3 8 0 14 7 14 7 0 9 8 5 20 -5 15 -3 18 9 14 8 -3 12
-12 9 -20 -3 -8 1 -14 8 -14 8 0 24 -3 37 -6 27 -8 31 19 5 36 -15 9 -14 10 7
4 21 -6 23 -5 13 8 -7 8 -10 18 -6 21 12 13 23 7 23 -13 0 -11 4 -20 10 -20 5
0 9 10 7 21 -1 12 4 24 11 26 7 3 10 -1 6 -11 -4 -11 -1 -16 10 -16 10 0 16 9
16 23 0 18 2 19 10 7 5 -8 10 -30 10 -47 0 -49 20 -40 21 10 0 23 3 36 6 29 2
-6 9 -10 13 -7 5 3 7 12 3 20 -3 8 0 15 6 15 6 0 11 -9 11 -19z m-200 -15 c0
-3 -4 -8 -10 -11 -5 -3 -10 -1 -10 4 0 6 5 11 10 11 6 0 10 -2 10 -4z m334 -7
c-3 -6 0 -15 7 -20 11 -7 10 -9 -3 -9 -18 0 -24 20 -11 33 10 11 15 8 7 -4z
m81 -9 c-28 -12 -45 -12 -45 0 0 6 15 10 33 9 27 0 29 -2 12 -9z m72 -16 c-3
-3 -12 -4 -19 -1 -8 3 -5 6 6 6 11 1 17 -2 13 -5z m50 -14 c4 -12 3 -13 -5 -1
-8 11 -11 10 -14 -5 -3 -17 -5 -16 -10 4 -5 18 -3 22 9 20 9 -2 18 -10 20 -18z
m37 12 c3 -5 -1 -9 -9 -9 -8 0 -12 4 -9 9 3 4 7 8 9 8 2 0 6 -4 9 -8z m-4 -42
c0 -5 -2 -10 -4 -10 -3 0 -8 5 -11 10 -3 6 -1 10 4 10 6 0 11 -4 11 -10z m-23
-32 c-3 -8 -6 -5 -6 6 -1 11 2 17 5 13 3 -3 4 -12 1 -19z m140 -14 c-3 -3 -12
-4 -19 -1 -8 3 -5 6 6 6 11 1 17 -2 13 -5z m-129 -45 c-3 -35 -2 -38 9 -23 7
10 13 13 13 7 0 -6 -7 -16 -15 -23 -9 -7 -14 -19 -11 -27 3 -8 1 -11 -4 -8
-18 11 -10 -14 8 -25 15 -10 15 -11 0 -6 -9 3 -19 0 -21 -7 -3 -9 -8 -8 -21 2
-15 13 -15 16 3 47 11 18 23 49 27 69 9 48 17 44 12 -6z m19 19 c-3 -8 -6 -5
-6 6 -1 11 2 17 5 13 3 -3 4 -12 1 -19z m-100 -2 c5 -4 4 -7 -2 -6 -5 1 -17 2
-25 1 -13 -1 -13 -2 0 -11 8 -5 10 -10 4 -10 -14 0 -36 25 -29 32 7 7 43 3 52
-6z m-630 -52 c-3 -3 -12 -4 -19 -1 -8 3 -5 6 6 6 11 1 17 -2 13 -5z m13 -62
c0 -19 -2 -21 -14 -10 -10 10 -11 15 -2 21 8 6 8 10 -2 14 -6 2 -9 9 -6 15 9
14 24 -11 24 -40z m750 33 c0 5 5 4 12 -3 9 -9 9 -15 0 -24 -8 -8 -9 -15 -1
-25 7 -7 8 -13 3 -13 -5 0 -2 -5 6 -10 13 -8 13 -10 -2 -10 -10 0 -18 9 -20
23 -2 12 -8 21 -14 20 -10 -2 -11 11 -5 52 1 6 6 3 11 -5 5 -8 10 -11 10 -5z
m-710 -30 c0 -14 -4 -25 -10 -25 -5 0 -10 11 -10 25 0 14 5 25 10 25 6 0 10
-11 10 -25z m765 5 c3 -5 1 -10 -4 -10 -6 0 -11 5 -11 10 0 6 2 10 4 10 3 0 8
-4 11 -10z m5 -43 c11 -5 9 -6 -4 -4 -11 1 -21 9 -23 17 -3 10 -2 11 4 4 4 -6
15 -14 23 -17z m-825 3 c3 -5 -3 -10 -14 -10 -12 0 -21 5 -21 10 0 6 6 10 14
10 8 0 18 -4 21 -10z m692 -6 c-3 -3 -12 -4 -19 -1 -8 3 -5 6 6 6 11 1 17 -2
13 -5z m50 -16 c-3 -8 -6 -5 -6 6 -1 11 2 17 5 13 3 -3 4 -12 1 -19z m-83 3
c3 -5 16 -7 29 -4 18 4 19 3 7 -6 -18 -13 -50 -14 -50 -2 0 5 -8 12 -17 14
-14 4 -13 5 4 6 12 0 24 -3 27 -8z m-674 -31 c0 -5 -4 -10 -10 -10 -5 0 -10 5
-10 10 0 6 5 10 10 10 6 0 10 -4 10 -10z m997 -46 c-3 -3 -12 -4 -19 -1 -8 3
-5 6 6 6 11 1 17 -2 13 -5z m-64 -11 c-7 -2 -19 -2 -25 0 -7 3 -2 5 12 5 14 0
19 -2 13 -5z m-903 -43 c11 -7 5 -8 -20 -4 -43 8 -51 14 -19 14 13 0 31 -5 39
-10z m2388 -47 c-10 -2 -26 -2 -35 0 -10 3 -2 5 17 5 19 0 27 -2 18 -5z m1609
-29 c-3 -3 -12 -4 -19 -1 -8 3 -5 6 6 6 11 1 17 -2 13 -5z m98 -24 c13 -6 15
-9 5 -9 -8 0 -22 4 -30 9 -18 12 -2 12 25 0z m52 -16 c-3 -3 -12 -4 -19 -1 -8
3 -5 6 6 6 11 1 17 -2 13 -5z m40 -10 c-3 -3 -12 -4 -19 -1 -8 3 -5 6 6 6 11
1 17 -2 13 -5z m40 -10 c-3 -3 -12 -4 -19 -1 -8 3 -5 6 6 6 11 1 17 -2 13 -5z
m70 -20 c-3 -3 -12 -4 -19 -1 -8 3 -5 6 6 6 11 1 17 -2 13 -5z m40 -10 c-3 -3
-12 -4 -19 -1 -8 3 -5 6 6 6 11 1 17 -2 13 -5z m100 -30 c-3 -3 -12 -4 -19 -1
-8 3 -5 6 6 6 11 1 17 -2 13 -5z m88 -24 c13 -5 14 -9 5 -9 -8 0 -24 4 -35 9
-13 5 -14 9 -5 9 8 0 24 -4 35 -9z m-4898 -26 c-3 -3 -12 -4 -19 -1 -8 3 -5 6
6 6 11 1 17 -2 13 -5z m4988 -4 c13 -6 15 -9 5 -9 -8 0 -22 4 -30 9 -18 12 -2
12 25 0z m-5055 -15 c-46 -18 -64 -17 -25 0 17 8 37 14 45 14 8 0 -1 -7 -20
-14z m1017 -11 c-3 -3 -12 -4 -19 -1 -8 3 -5 6 6 6 11 1 17 -2 13 -5z m-1092
-14 c-27 -12 -43 -12 -25 0 8 5 22 9 30 9 10 0 8 -3 -5 -9z m5102 -6 c-3 -3
-12 -4 -19 -1 -8 3 -5 6 6 6 11 1 17 -2 13 -5z m-5157 -14 c-8 -5 -19 -10 -25
-10 -5 0 -3 5 5 10 8 5 20 10 25 10 6 0 3 -5 -5 -10z m-615 -218 c-3 -3 -11 0
-18 7 -9 10 -8 11 6 5 10 -3 15 -9 12 -12z m-745 -788 c6 -104 13 -207 15
-229 10 -80 26 -585 20 -596 -16 -24 -27 13 -31 102 -3 52 -12 112 -20 133
-21 54 -33 254 -34 542 0 174 3 243 12 252 21 21 26 -7 38 -204z m2760 -29 c0
-3 -9 -5 -20 -5 -11 0 -20 7 -20 15 0 13 4 14 20 5 11 -6 20 -13 20 -15z m480
-175 c0 -5 -9 -10 -20 -10 -11 0 -20 5 -20 10 0 6 9 10 20 10 11 0 20 -4 20
-10z m650 -380 c0 -5 -2 -10 -4 -10 -3 0 -8 5 -11 10 -3 6 -1 10 4 10 6 0 11
-4 11 -10z m1265 -280 c31 -5 -4 -6 -95 -3 -80 3 -147 7 -149 9 -8 7 194 2
244 -6z m-5037 -175 c16 -82 40 -299 47 -420 3 -55 9 -116 12 -135 3 -19 3
-32 0 -29 -8 6 -38 163 -67 339 -20 125 -28 332 -11 315 4 -6 13 -37 19 -70z
m5692 31 c0 -2 -13 -6 -29 -8 -17 -2 -28 -1 -25 4 5 8 54 12 54 4z m-7 -163
c-7 -2 -19 -2 -25 0 -7 3 -2 5 12 5 14 0 19 -2 13 -5z m74 -19 c-3 -3 -12 -4
-19 -1 -8 3 -5 6 6 6 11 1 17 -2 13 -5z m-634 -95 c-6 -6 -9 -19 -6 -28 3 -9
-6 0 -20 19 -22 31 -23 36 -8 41 22 9 49 -17 34 -32z m-218 -49 c-3 -5 -10
-10 -16 -10 -5 0 -9 5 -9 10 0 6 7 10 16 10 8 0 12 -4 9 -10z m45 -34 c0 -3
-4 -8 -10 -11 -5 -3 -10 -1 -10 4 0 6 5 11 10 11 6 0 10 -2 10 -4z m187 -18
c-3 -8 -6 -5 -6 6 -1 11 2 17 5 13 3 -3 4 -12 1 -19z m-452 -27 c3 -5 2 -12
-3 -15 -5 -3 -9 1 -9 9 0 17 3 19 12 6z m-82 -8 c-7 -2 -19 -2 -25 0 -7 3 -2
5 12 5 14 0 19 -2 13 -5z m54 -9 c-3 -3 -12 -4 -19 -1 -8 3 -5 6 6 6 11 1 17
-2 13 -5z m-1078 -61 c-79 -82 -119 -133 -270 -348 -172 -246 -234 -336 -254
-374 -9 -19 -20 -29 -27 -25 -7 4 -8 3 -4 -5 5 -7 -10 -39 -34 -76 -23 -36
-43 -65 -44 -65 -1 0 -2 9 -2 19 0 11 4 17 8 15 4 -3 11 4 17 14 12 22 11 63
-2 55 -4 -3 -6 -12 -3 -20 4 -9 2 -11 -6 -7 -8 5 -9 1 -5 -12 5 -15 2 -13 -15
6 -21 24 -21 24 -15 2 3 -15 1 -20 -6 -15 -20 12 -46 10 -51 -4 -8 -19 -29
-16 -54 7 -22 21 -22 21 -22 1 0 -11 -5 -23 -11 -27 -8 -4 -9 1 -4 16 5 15 4
20 -4 16 -6 -4 -21 0 -33 8 -29 21 -39 20 -31 -1 6 -16 5 -16 -10 -4 -15 12
-20 11 -37 -4 -11 -10 -23 -16 -26 -13 -6 7 75 73 91 74 5 0 19 -4 30 -8 l20
-9 -20 16 c-11 9 -20 17 -20 18 0 1 20 20 45 42 25 22 47 43 48 48 2 4 7 7 12
7 4 0 25 17 47 38 21 20 70 65 107 100 38 34 66 62 62 62 -5 0 -47 -35 -94
-79 -186 -168 -416 -360 -425 -354 -6 3 -7 2 -4 -4 5 -9 -117 -118 -125 -112
-2 1 -13 -3 -25 -9 -16 -9 -24 -9 -29 0 -4 7 -3 8 4 4 7 -4 12 -3 12 3 0 5 -6
12 -12 15 -7 3 -4 4 6 3 10 -1 21 4 24 12 3 9 0 11 -8 6 -9 -5 -11 -4 -6 4 4
6 12 9 17 6 5 -4 9 1 9 10 0 11 5 15 16 11 8 -3 13 -2 9 3 -3 5 16 27 42 48
27 21 50 40 53 44 3 3 140 113 305 244 301 241 494 396 572 460 57 48 65 44
18 -7 l-40 -43 42 39 c23 21 41 43 40 47 -2 7 162 158 173 159 2 0 -21 -26
-51 -57z m499 -88 c-3 -3 -9 2 -12 12 -6 14 -5 15 5 6 7 -7 10 -15 7 -18z m33
-32 c13 -16 12 -17 -3 -4 -10 7 -18 15 -18 17 0 8 8 3 21 -13z m59 -18 c19
-19 32 -35 29 -35 -3 0 -20 16 -39 35 -19 19 -32 35 -29 35 3 0 20 -16 39 -35z
m-386 -51 c-3 -21 -1 -41 7 -50 9 -11 8 -14 -5 -14 -12 0 -16 10 -16 43 0 38
5 57 17 57 1 0 0 -16 -3 -36z m-815 0 c-14 -18 -24 -11 -15 11 3 9 11 13 16
10 8 -5 7 -11 -1 -21z m-55 -41 c-10 -7 -26 -13 -37 -13 -10 0 -16 -4 -12 -9
3 -6 -4 -9 -15 -8 -34 2 -23 14 25 26 39 10 45 15 46 39 2 26 2 26 6 3 3 -16
-1 -29 -13 -38z m1336 22 c19 -19 32 -35 29 -35 -3 0 -20 16 -39 35 -19 19
-32 35 -29 35 3 0 20 -16 39 -35z m-1362 3 c-5 -14 -48 -31 -48 -18 0 6 7 10
15 10 8 0 15 5 15 10 0 6 5 10 11 10 6 0 9 -5 7 -12z m-64 -43 c-9 -28 -24
-43 -24 -23 0 9 -2 23 -5 30 -4 9 2 14 15 14 15 0 19 -5 14 -21z m1496 -20
c13 -14 21 -25 18 -25 -2 0 -15 11 -28 25 -13 14 -21 25 -18 25 2 0 15 -11 28
-25z m-1555 -25 c3 -6 -1 -7 -9 -4 -18 7 -21 14 -7 14 6 0 13 -4 16 -10z
m-2518 -32 c-3 -8 -6 -5 -6 6 -1 11 2 17 5 13 3 -3 4 -12 1 -19z m7023 -467
c0 -6 -4 -13 -10 -16 -5 -3 -10 1 -10 9 0 9 5 16 10 16 6 0 10 -4 10 -9z
m-4550 -71 c0 -5 -2 -10 -4 -10 -3 0 -8 5 -11 10 -3 6 -1 10 4 10 6 0 11 -4
11 -10z m-350 -173 c0 -2 -12 -14 -27 -28 -15 -13 -22 -17 -15 -7 7 9 9 18 5
20 -4 3 -3 3 4 2 7 -2 15 1 18 6 6 10 15 14 15 7z"/>
<path d="M4462 9580 c0 -14 2 -19 5 -12 2 6 2 18 0 25 -3 6 -5 1 -5 -13z"/>
<path d="M4688 9453 c6 -2 18 -2 25 0 6 3 1 5 -13 5 -14 0 -19 -2 -12 -5z"/>
<path d="M5458 8873 c7 -3 16 -2 19 1 4 3 -2 6 -13 5 -11 0 -14 -3 -6 -6z"/>
<path d="M5621 8704 c0 -11 3 -14 6 -6 3 7 2 16 -1 19 -3 4 -6 -2 -5 -13z"/>
<path d="M3392 8318 c5 -15 28 -23 28 -10 0 5 -7 13 -16 16 -10 4 -14 1 -12
-6z"/>
<path d="M3290 8305 c0 -8 5 -15 10 -15 6 0 10 7 10 15 0 8 -4 15 -10 15 -5 0
-10 -7 -10 -15z"/>
<path d="M3570 8280 c0 -16 5 -30 10 -30 6 0 10 6 10 14 0 8 3 21 6 30 4 11 1
16 -10 16 -11 0 -16 -9 -16 -30z"/>
<path d="M3535 8270 c3 -5 8 -10 11 -10 2 0 4 5 4 10 0 6 -5 10 -11 10 -5 0
-7 -4 -4 -10z"/>
<path d="M3160 8260 c0 -5 5 -10 10 -10 6 0 10 5 10 10 0 6 -4 10 -10 10 -5 0
-10 -4 -10 -10z"/>
<path d="M3394 8226 c-3 -8 -1 -23 6 -33 9 -16 10 -15 4 6 -4 16 -3 21 5 17 7
-5 9 -1 5 8 -8 20 -13 20 -20 2z"/>
<path d="M3520 8210 c0 -5 10 -10 23 -10 18 0 19 2 7 10 -19 13 -30 13 -30 0z"/>
<path d="M3425 8190 c-3 -5 -1 -10 4 -10 6 0 11 5 11 10 0 6 -2 10 -4 10 -3 0
-8 -4 -11 -10z"/>
<path d="M3448 8123 c7 -3 16 -2 19 1 4 3 -2 6 -13 5 -11 0 -14 -3 -6 -6z"/>
<path d="M3600 8110 c0 -5 7 -10 15 -10 8 0 15 5 15 10 0 6 -7 10 -15 10 -8 0
-15 -4 -15 -10z"/>
<path d="M3650 8109 c0 -5 5 -7 10 -4 6 3 10 8 10 11 0 2 -4 4 -10 4 -5 0 -10
-5 -10 -11z"/>
<path d="M3505 8080 c27 -12 43 -12 25 0 -8 5 -22 9 -30 9 -10 0 -8 -3 5 -9z"/>
<path d="M3655 8080 c3 -5 11 -10 16 -10 6 0 7 5 4 10 -3 6 -11 10 -16 10 -6
0 -7 -4 -4 -10z"/>
<path d="M3111 8034 c0 -11 3 -14 6 -6 3 7 2 16 -1 19 -3 4 -6 -2 -5 -13z"/>
<path d="M3538 8043 c7 -3 16 -2 19 1 4 3 -2 6 -13 5 -11 0 -14 -3 -6 -6z"/>
<path d="M3140 8024 c0 -8 5 -12 10 -9 6 3 10 10 10 16 0 5 -4 9 -10 9 -5 0
-10 -7 -10 -16z"/>
<path d="M3500 8020 c0 -5 5 -10 10 -10 6 0 10 5 10 10 0 6 -4 10 -10 10 -5 0
-10 -4 -10 -10z"/>
<path d="M3565 8020 c3 -5 10 -10 16 -10 5 0 9 5 9 10 0 6 -7 10 -16 10 -8 0
-12 -4 -9 -10z"/>
<path d="M3180 7999 c0 -5 5 -7 10 -4 6 3 10 8 10 11 0 2 -4 4 -10 4 -5 0 -10
-5 -10 -11z"/>
<path d="M3100 7979 c0 -5 -9 -9 -20 -9 -11 0 -20 -4 -20 -10 0 -5 9 -10 20
-10 11 0 20 5 20 11 0 6 7 9 15 5 8 -3 15 -1 15 4 0 6 5 10 10 10 6 0 10 -6
10 -13 0 -19 27 -53 35 -45 14 14 -34 66 -60 66 -14 0 -25 -4 -25 -9z"/>
<path d="M3274 7982 c-8 -5 -7 -11 4 -22 14 -13 15 -12 9 2 -4 11 0 18 11 21
13 4 13 5 2 6 -8 0 -20 -3 -26 -7z"/>
<path d="M3370 7980 l-25 -8 27 -1 c15 -1 30 4 33 9 7 11 0 11 -35 0z"/>
<path d="M3715 8121 c-9 -19 -11 -32 -5 -36 10 -6 14 1 11 18 -1 4 3 17 9 27
6 11 8 20 6 20 -3 0 -12 -13 -21 -29z"/>
<path d="M3784 8110 c2 -16 20 -14 24 2 3 10 2 10 -6 -1 -7 -9 -11 -10 -15 -2
-4 7 -5 8 -3 1z"/>
<path d="M6337 5333 c-3 -5 -2 -15 2 -22 7 -10 10 -10 16 -1 4 6 3 16 -3 22
-5 5 -12 6 -15 1z"/>
<path d="M4574 4888 l-19 -23 23 19 c21 18 27 26 19 26 -2 0 -12 -10 -23 -22z"/>
<path d="M4509 4833 l-34 -36 37 29 c21 16 38 32 38 37 0 12 -5 9 -41 -30z"/>
<path d="M4341 4694 c-24 -18 -40 -34 -35 -34 5 0 27 16 49 35 52 44 43 44
-14 -1z"/>
<path d="M4176 4307 c3 -10 9 -15 12 -12 3 3 0 11 -7 18 -10 9 -11 8 -5 -6z"/>
<path d="M4076 4291 c-4 -7 -5 -15 -2 -18 9 -9 19 4 14 18 -4 11 -6 11 -12 0z"/>
<path d="M3680 4151 c-8 -6 -19 -7 -25 -4 -5 4 -7 3 -3 -2 4 -4 3 -14 -3 -22
-19 -22 -2 -15 27 12 28 26 29 31 4 16z"/>
<path d="M7550 9295 c0 -8 5 -15 10 -15 6 0 10 7 10 15 0 8 -4 15 -10 15 -5 0
-10 -7 -10 -15z"/>
<path d="M3868 7803 c7 -3 16 -2 19 1 4 3 -2 6 -13 5 -11 0 -14 -3 -6 -6z"/>
<path d="M3788 7793 c6 -2 18 -2 25 0 6 3 1 5 -13 5 -14 0 -19 -2 -12 -5z"/>
<path d="M3515 7620 c-14 -7 -8 -8 19 -3 28 4 37 3 32 -6 -4 -6 -1 -11 8 -11
25 0 27 17 3 24 -28 7 -37 7 -62 -4z"/>
<path d="M1250 7511 c0 -11 39 -41 52 -41 5 0 1 11 -8 25 -16 24 -44 34 -44
16z"/>
<path d="M1794 7344 c-18 -14 -18 -15 4 -4 12 6 22 13 22 15 0 8 -5 6 -26 -11z"/>
<path d="M8960 7053 c0 -131 -7 -357 -15 -503 -8 -146 -14 -287 -13 -315 l1
-50 8 60 c4 33 15 182 24 330 9 149 20 284 24 300 7 29 8 28 24 -25 25 -85 30
-223 18 -470 -10 -208 -19 -284 -51 -445 -14 -72 -29 -104 -30 -63 0 15 -4 30
-10 33 -6 4 -10 -38 -10 -120 0 -120 1 -127 28 -167 l27 -42 -3 -178 -3 -178
24 11 c36 16 45 44 52 165 9 156 18 185 69 221 41 29 43 33 49 93 4 35 7 95 7
134 0 66 2 73 29 97 37 32 45 88 39 272 -4 128 -5 134 -36 181 -39 60 -40 71
-47 392 -4 144 -10 278 -15 298 -6 27 -30 58 -93 121 -47 47 -88 85 -91 85 -3
0 -6 -107 -6 -237z"/>
<path d="M8410 7185 c0 -8 2 -15 4 -15 2 0 6 7 10 15 3 8 1 15 -4 15 -6 0 -10
-7 -10 -15z"/>
<path d="M3498 6943 c7 -3 16 -2 19 1 4 3 -2 6 -13 5 -11 0 -14 -3 -6 -6z"/>
<path d="M3498 6913 c7 -3 16 -2 19 1 4 3 -2 6 -13 5 -11 0 -14 -3 -6 -6z"/>
<path d="M8827 6220 c-61 -287 -101 -554 -117 -775 -33 -464 -38 -607 -24
-704 6 -49 8 -52 21 -35 22 30 83 264 83 317 0 15 6 58 14 95 23 110 35 199
46 347 21 265 25 370 22 535 -3 132 -7 173 -21 205 -17 38 -19 39 -24 15z"/>
<path d="M5128 5953 c7 -3 16 -2 19 1 4 3 -2 6 -13 5 -11 0 -14 -3 -6 -6z"/>
<path d="M3250 5200 c0 -5 5 -10 11 -10 5 0 7 5 4 10 -3 6 -8 10 -11 10 -2 0
-4 -4 -4 -10z"/>
<path d="M4385 5125 c-39 -18 -31 -18 25 -1 25 8 36 15 25 15 -11 0 -33 -6
-50 -14z"/>
<path d="M4010 5000 c-18 -12 -2 -12 25 0 13 6 15 9 5 9 -8 0 -22 -4 -30 -9z"/>
<path d="M3848 4963 c7 -3 16 -2 19 1 4 3 -2 6 -13 5 -11 0 -14 -3 -6 -6z"/>
<path d="M8881 4574 c0 -11 3 -14 6 -6 3 7 2 16 -1 19 -3 4 -6 -2 -5 -13z"/>
<path d="M8866 4525 c-20 -78 -117 -248 -212 -370 -119 -154 -354 -367 -480
-435 -21 -11 -68 -39 -104 -62 -473 -295 -1193 -531 -1923 -628 -145 -20 -107
-6 51 19 217 33 548 102 677 141 33 11 89 26 125 35 101 25 332 101 475 157
312 121 639 306 812 460 32 29 52 46 46 38 -7 -8 -13 -18 -13 -24 0 -17 160
148 222 229 33 44 49 69 35 56 -14 -12 -30 -20 -37 -16 -6 4 -9 1 -8 -7 2 -8
-4 -12 -16 -10 -18 3 -18 2 -6 -13 12 -14 12 -18 0 -25 -9 -5 -20 -4 -29 3
-12 10 -14 9 -8 -6 4 -11 3 -16 -4 -12 -6 4 -20 -1 -32 -11 -12 -10 -6 -2 12
19 34 36 48 47 36 28 -3 -5 -1 -12 4 -15 5 -4 12 -2 15 3 4 5 1 13 -5 16 -5 4
-8 14 -4 22 3 9 -9 1 -27 -17 -76 -75 -297 -212 -563 -349 -92 -48 -237 -112
-241 -108 -2 2 33 21 78 43 109 50 170 85 164 92 -3 2 -12 -1 -20 -7 -25 -21
-272 -123 -486 -202 -190 -70 -565 -172 -820 -223 -97 -19 -372 -61 -525 -80
-515 -63 -1165 -79 -1665 -41 -367 29 -536 51 -840 111 -539 107 -881 219
-1345 441 -271 130 -363 187 -594 367 -29 22 7 -28 54 -76 72 -75 41 -56 -58
34 -99 90 -99 75 -1 -44 280 -340 809 -631 1529 -842 249 -72 855 -196 1035
-211 41 -3 136 -13 210 -22 74 -8 214 -21 310 -28 169 -12 171 -12 70 -14
-276 -3 -750 50 -1120 125 -260 53 -643 165 -918 268 -589 221 -1037 517
-1287 848 -85 112 -119 167 -151 246 -30 72 -31 43 -2 -35 22 -61 37 -89 96
-188 47 -78 75 -117 139 -189 29 -32 51 -64 50 -70 -1 -6 4 -10 11 -8 6 1 12
-4 12 -11 0 -7 28 -37 62 -67 34 -30 69 -62 78 -70 62 -59 145 -119 271 -198
182 -113 302 -177 539 -285 273 -125 273 -125 300 -144 13 -10 21 -12 17 -6
-12 19 19 5 81 -35 28 -19 52 -41 52 -49 0 -8 5 -11 12 -7 7 4 8 3 4 -5 -17
-27 358 -544 506 -698 26 -26 37 -46 33 -54 -5 -7 -4 -10 3 -5 6 3 13 2 17 -4
3 -5 1 -10 -5 -10 -7 0 1 -13 16 -29 15 -17 32 -27 37 -24 6 3 7 1 3 -5 -8
-13 -36 -5 -36 10 0 5 -4 6 -10 3 -5 -3 -10 -1 -10 5 0 6 -4 9 -8 6 -12 -7
-84 68 -75 78 4 4 -1 4 -12 0 -15 -6 -17 -4 -12 10 4 9 3 15 -1 12 -5 -3 -64
49 -132 115 -69 65 -133 122 -143 125 -11 3 -16 12 -13 20 3 8 -1 14 -9 14 -8
0 -19 9 -25 20 -16 30 -27 24 -22 -11 3 -17 1 -30 -4 -28 -19 8 -448 299 -652
442 -286 200 -446 334 -678 563 -202 200 -280 286 -358 397 -27 37 -50 66 -53
64 -2 -3 2 -27 11 -53 8 -27 26 -103 41 -169 92 -411 275 -894 495 -1309 74
-139 102 -201 104 -232 2 -24 8 -49 13 -56 14 -17 10 -32 -21 -100 -14 -31
-26 -71 -26 -88 0 -45 -24 -96 -49 -103 -11 -3 -24 -1 -27 4 -3 5 -15 9 -27 8
-12 -1 -37 -1 -55 -1 -30 2 -32 4 -26 30 4 15 11 30 16 33 6 3 9 9 9 13 -1 3
5 19 13 34 9 17 11 34 6 42 -4 7 -6 19 -4 25 4 8 -10 14 -40 17 -32 4 -56 15
-81 37 -29 26 -39 29 -55 21 -11 -6 -20 -14 -20 -18 0 -5 -18 -16 -39 -25 -52
-23 -57 -41 -26 -94 31 -52 27 -74 -20 -99 -19 -10 -34 -23 -32 -28 7 -21 55
-47 112 -62 54 -14 74 -27 75 -45 0 -4 -30 -4 -68 -2 -50 4 -89 15 -153 44
-95 43 -136 51 -120 22 11 -20 -20 -53 -50 -53 -10 0 -23 -8 -28 -18 -6 -9
-11 -14 -11 -9 0 10 -80 -74 -80 -85 0 -5 -4 -7 -9 -4 -12 8 -8 -57 4 -66 6
-5 5 -8 -3 -8 -7 0 -26 10 -42 22 -24 17 -32 19 -44 9 -23 -20 -30 -51 -13
-64 19 -16 45 -85 63 -170 12 -57 12 -72 2 -79 -26 -16 -43 -4 -40 28 4 39
-25 166 -43 190 -14 18 -17 17 -50 -19 l-35 -37 -29 21 c-18 13 -61 27 -108
35 -43 8 -89 22 -103 32 -45 34 -85 41 -145 28 -16 -3 -52 -11 -80 -17 -105
-22 -225 -85 -225 -119 0 -12 -23 -35 -63 -64 -34 -25 -71 -59 -82 -76 -29
-45 -79 -74 -104 -61 -54 29 -51 68 -51 -664 l0 -675 5120 0 5120 0 0 749 c0
512 -3 752 -10 756 -7 5 -8 11 -1 19 6 7 10 159 11 389 l1 378 -23 -6 c-13 -2
-52 -7 -88 -10 -72 -6 -122 -15 -130 -24 -12 -15 -52 -31 -75 -31 -14 0 -25
-4 -25 -10 0 -5 -9 -10 -20 -10 -11 0 -20 -5 -20 -11 0 -6 -6 -9 -14 -6 -8 3
-29 -9 -47 -28 -18 -18 -38 -31 -43 -28 -5 4 -7 -1 -3 -10 4 -10 -1 -18 -14
-22 -10 -4 -19 -11 -19 -17 0 -6 -18 -29 -40 -50 -22 -22 -40 -44 -40 -49 0
-5 -7 -9 -15 -9 -8 0 -15 -4 -15 -10 0 -5 -7 -7 -15 -4 -8 4 -17 -1 -21 -10
-3 -9 -14 -16 -23 -16 -9 0 -24 -9 -34 -20 -9 -11 -28 -20 -42 -20 -14 0 -25
-6 -25 -12 0 -10 -3 -9 -9 1 -5 8 -16 11 -29 7 -12 -4 -34 0 -50 8 -26 14 -30
13 -45 -5 -9 -10 -23 -19 -31 -19 -18 0 -105 24 -166 45 -25 9 -52 18 -60 21
-8 3 -16 5 -18 5 -1 -1 -19 6 -39 14 -20 8 -38 13 -40 11 -3 -2 -53 28 -112
68 -59 40 -121 80 -137 88 -16 8 -51 28 -78 43 -45 26 -50 27 -61 11 -10 -13
-14 -14 -18 -4 -4 10 -6 10 -6 1 -1 -7 -5 -13 -10 -13 -5 0 -7 8 -4 19 6 23
-22 51 -50 51 -26 -1 -50 -20 -101 -82 -57 -71 -98 -66 -211 24 -33 27 -65 48
-72 48 -17 0 -17 1 17 109 16 51 41 108 55 127 14 18 30 45 36 61 5 15 28 57
49 93 119 197 333 759 427 1120 72 279 84 332 79 345 -3 8 -1 15 3 17 4 2 11
17 15 33 l7 30 -17 -25 c-10 -14 -74 -94 -142 -178 -133 -165 -290 -328 -416
-435 -78 -66 -108 -79 -123 -54 -4 8 -16 16 -25 20 -22 8 -24 37 -2 37 8 0 12
5 9 10 -3 6 -1 10 5 10 7 0 10 6 7 13 -2 6 10 22 27 35 17 13 31 28 31 35 0 7
8 11 18 11 9 -1 15 2 12 6 -5 8 32 42 130 116 151 114 314 284 412 429 77 114
171 325 161 357 -3 7 -8 0 -12 -17z m-472 -517 c-26 -30 -53 -52 -157 -126
-114 -80 -198 -134 -203 -129 -2 2 15 14 37 28 22 13 68 45 102 70 34 25 87
61 117 81 30 19 68 49 84 67 34 35 49 42 20 9z m-74 -211 c0 -2 -12 -14 -27
-28 l-28 -24 24 28 c23 25 31 32 31 24z m-345 -77 c-3 -5 -12 -10 -18 -10 -7
0 -6 4 3 10 19 12 23 12 15 0z m115 -285 c11 -13 10 -14 -4 -9 -9 3 -16 10
-16 15 0 13 6 11 20 -6z m-4753 -81 c-3 -3 -12 -4 -19 -1 -8 3 -5 6 6 6 11 1
17 -2 13 -5z m50 -10 c-3 -3 -12 -4 -19 -1 -8 3 -5 6 6 6 11 1 17 -2 13 -5z
m260 -100 c-3 -3 -12 -4 -19 -1 -8 3 -5 6 6 6 11 1 17 -2 13 -5z m60 -10 c-3
-3 -12 -4 -19 -1 -8 3 -5 6 6 6 11 1 17 -2 13 -5z m60 -10 c-3 -3 -12 -4 -19
-1 -8 3 -5 6 6 6 11 1 17 -2 13 -5z m66 -11 c-7 -2 -19 -2 -25 0 -7 3 -2 5 12
5 14 0 19 -2 13 -5z m54 -9 c-3 -3 -12 -4 -19 -1 -8 3 -5 6 6 6 11 1 17 -2 13
-5z m496 -1 c-7 -2 -19 -2 -25 0 -7 3 -2 5 12 5 14 0 19 -2 13 -5z m155 -10
c-16 -2 -40 -2 -55 0 -16 2 -3 4 27 4 30 0 43 -2 28 -4z m190 -10 c-15 -2 -42
-2 -60 0 -18 2 -6 4 27 4 33 0 48 -2 33 -4z m-595 -10 c-7 -2 -19 -2 -25 0 -7
3 -2 5 12 5 14 0 19 -2 13 -5z m3057 -48 c0 -14 -68 -124 -73 -118 -11 10 -8
25 3 18 12 -7 12 11 1 40 -7 16 -9 13 -15 -19 -5 -24 -3 -43 3 -49 8 -8 -2
-35 -32 -91 -24 -45 -56 -112 -72 -151 -30 -74 -52 -108 -41 -65 5 22 4 22 -7
-3 -22 -47 -67 -65 -67 -27 0 12 7 20 17 20 14 0 14 2 -2 20 -18 19 -17 20 6
21 13 0 18 3 12 6 -7 2 -13 17 -13 31 0 21 2 24 10 12 7 -11 10 -11 10 -2 0 7
5 10 10 7 6 -3 10 -1 10 4 0 6 -4 11 -10 11 -5 0 -10 8 -10 18 0 14 2 15 10 2
8 -13 11 -13 22 -1 10 10 10 12 1 7 -9 -5 -13 0 -13 15 0 17 3 20 11 12 6 -6
19 -8 30 -6 21 6 26 23 7 24 -10 0 -10 2 0 6 6 2 12 11 12 18 0 8 7 20 15 29
8 8 11 17 6 21 -5 3 -12 -4 -16 -15 -4 -11 -11 -17 -17 -14 -6 4 -7 9 0 13 5
3 22 30 37 60 24 48 85 124 85 106 0 -4 7 1 16 9 8 9 22 16 30 16 8 0 12 5 9
10 -3 6 -1 10 4 10 6 0 11 -2 11 -5z m-3907 -32 c-7 -2 -19 -2 -25 0 -7 3 -2
5 12 5 14 0 19 -2 13 -5z m-49 -11 c3 -5 -1 -9 -9 -9 -8 0 -12 4 -9 9 3 4 7 8
9 8 2 0 6 -4 9 -8z m111 -2 c13 -5 14 -9 5 -9 -8 0 -24 4 -35 9 -13 5 -14 9
-5 9 8 0 24 -4 35 -9z m177 -49 c68 -16 170 -38 227 -47 57 -10 99 -20 93 -22
-15 -5 -248 35 -344 58 -43 11 -90 26 -105 35 -16 9 -20 14 -11 11 9 -3 72
-18 140 -35z m-259 16 c12 -8 36 -22 52 -33 17 -10 32 -19 35 -19 3 0 19 -10
35 -23 l30 -23 -33 16 c-42 21 -159 95 -149 95 4 0 18 -6 30 -13z m2745 -34
c-10 -2 -26 -2 -35 0 -10 3 -2 5 17 5 19 0 27 -2 18 -5z m-85 -10 c-7 -2 -19
-2 -25 0 -7 3 -2 5 12 5 14 0 19 -2 13 -5z m-2013 -41 c0 -4 -12 -8 -27 -9
-24 -1 -25 -1 -8 7 26 11 35 12 35 2z m37 -18 c-3 -3 -12 -4 -19 -1 -8 3 -5 6
6 6 11 1 17 -2 13 -5z m-737 -60 c43 -61 30 -56 -15 7 -20 28 -32 48 -26 45 6
-4 25 -27 41 -52z m265 38 c-3 -3 -11 0 -18 7 -9 10 -8 11 6 5 10 -3 15 -9 12
-12z m632 12 c-3 -3 -12 -4 -19 -1 -8 3 -5 6 6 6 11 1 17 -2 13 -5z m123 -8
c8 -2 -13 -4 -47 -5 -35 0 -63 2 -63 7 0 7 76 5 110 -2z m-695 -95 c99 -49
198 -96 220 -106 106 -43 437 -110 735 -149 19 -2 -12 -3 -70 -1 -123 4 -452
66 -600 114 -73 23 -456 205 -479 227 -17 16 37 -8 194 -85z m-255 -43 c19
-24 26 -37 17 -29 -19 15 -61 71 -54 71 2 0 19 -19 37 -42z m430 -18 c8 -5 11
-10 5 -10 -5 0 -17 5 -25 10 -8 5 -10 10 -5 10 6 0 17 -5 25 -10z m123 -37
c-7 -2 -21 -2 -30 0 -10 3 -4 5 12 5 17 0 24 -2 18 -5z m-473 -43 c17 -22 29
-40 27 -40 -3 0 -20 18 -37 40 -17 22 -29 40 -27 40 3 0 20 -18 37 -40z m570
18 c0 -10 -17 -9 -50 2 -21 7 -20 8 12 7 21 -1 38 -5 38 -9z m2950 -70 c0 -5
-5 -8 -11 -8 -5 0 -8 4 -5 9 3 5 -1 14 -9 21 -8 7 -15 18 -15 24 0 12 39 -34
40 -46z m-3465 -18 c10 -11 16 -20 13 -20 -3 0 -13 9 -23 20 -10 11 -16 20
-13 20 3 0 13 -9 23 -20z m46 -57 c13 -16 12 -17 -3 -4 -17 13 -22 21 -14 21
2 0 10 -8 17 -17z m150 -10 c13 -16 12 -17 -3 -4 -17 13 -22 21 -14 21 2 0 10
-8 17 -17z m-59 -95 c46 -59 28 -45 -32 25 -29 34 -41 51 -26 37 15 -14 41
-42 58 -62z m1196 30 c24 -20 11 -24 -45 -17 -193 26 -292 32 -310 18 -17 -13
-17 -13 -3 5 13 17 25 18 180 11 91 -4 171 -12 178 -17z m-355 -65 c-7 -2 -19
-2 -25 0 -7 3 -2 5 12 5 14 0 19 -2 13 -5z m-683 -118 c19 -19 32 -35 29 -35
-3 0 -20 16 -39 35 -19 19 -32 35 -29 35 3 0 20 -16 39 -35z m180 -21 c13 -5
13 -6 0 -14 -12 -8 -10 -10 8 -10 12 0 22 -4 22 -8 0 -7 -94 5 -108 13 -1 1 0
9 4 18 6 16 25 16 74 1z m166 -41 c-18 -33 -21 -26 -6 13 6 15 13 24 16 21 3
-3 -1 -18 -10 -34z m-99 11 c-3 -3 -12 -4 -19 -1 -8 3 -5 6 6 6 11 1 17 -2 13
-5z m346 -235 c139 -55 274 -109 300 -120 29 -12 88 -23 145 -28 l97 -8 -96
-2 -96 -1 -174 71 c-96 39 -214 86 -264 105 -49 19 -159 69 -243 111 -85 42
-160 76 -167 76 -7 0 -11 5 -9 12 3 7 52 -13 130 -52 68 -35 238 -109 377
-164z m-194 212 c10 -7 7 -9 -12 -8 -14 1 -23 5 -20 10 6 9 15 9 32 -2z m101
-51 c8 -5 11 -10 5 -10 -5 0 -17 5 -25 10 -8 5 -10 10 -5 10 6 0 17 -5 25 -10z
m-2116 -85 c13 -89 19 -105 40 -111 29 -7 48 -54 31 -77 -7 -9 -15 -14 -18
-10 -4 3 -7 -1 -7 -11 0 -13 -5 -16 -22 -10 -13 4 -28 14 -35 23 -30 41 -43
174 -22 228 l11 28 11 -25 c5 -14 11 -29 11 -35z m2316 35 c8 -5 11 -10 5 -10
-5 0 -17 5 -25 10 -8 5 -10 10 -5 10 6 0 17 -5 25 -10z m4076 -76 c-4 -9 -9
-15 -11 -12 -3 3 -3 13 1 22 4 9 9 15 11 12 3 -3 3 -13 -1 -22z m-3886 -4 c8
-5 11 -10 5 -10 -5 0 -17 5 -25 10 -8 5 -10 10 -5 10 6 0 17 -5 25 -10z m80
-30 c8 -5 11 -10 5 -10 -5 0 -17 5 -25 10 -8 5 -10 10 -5 10 6 0 17 -5 25 -10z
m4195 -87 c39 -9 74 -20 80 -24 5 -5 17 -9 26 -9 10 0 27 -11 38 -26 18 -23
19 -29 7 -69 -8 -23 -20 -53 -29 -64 -13 -20 -16 -21 -30 -6 -9 8 -30 18 -46
21 -17 4 -31 10 -31 14 0 6 -17 12 -100 37 -14 4 -31 6 -38 4 -8 -1 -16 7 -19
18 -7 27 -40 33 -94 17 -55 -17 -82 -7 -37 13 17 8 48 33 70 56 38 40 43 43
87 39 25 -3 78 -12 116 -21z m738 -82 c16 -6 48 -25 72 -41 24 -17 48 -30 54
-30 6 0 11 -4 11 -10 0 -5 6 -10 14 -10 8 0 16 -5 18 -12 3 -8 12 -9 34 -1 37
13 84 -2 84 -27 0 -17 -50 -59 -50 -43 0 5 -5 1 -10 -7 -9 -13 -11 -13 -20 0
-5 8 -10 25 -10 38 0 20 -2 21 -21 10 -17 -11 -23 -11 -26 0 -3 6 -8 10 -13 7
-4 -2 -21 2 -38 11 -46 22 -137 44 -188 44 -44 0 -82 -17 -117 -52 -39 -39
-64 -7 -46 58 12 43 33 53 60 28 20 -18 21 -18 57 22 34 37 40 40 72 33 19 -3
48 -12 63 -18z m-4650 2 c-7 -2 -21 -2 -30 0 -10 3 -4 5 12 5 17 0 24 -2 18
-5z m3602 -23 c3 -6 -1 -7 -9 -4 -18 7 -21 14 -7 14 6 0 13 -4 16 -10z m-6044
-77 c13 -16 12 -17 -3 -4 -10 7 -18 15 -18 17 0 8 8 3 21 -13z m239 -182 c267
-194 441 -292 785 -444 169 -75 542 -189 729 -223 54 -10 94 -20 88 -22 -48
-16 -586 130 -767 208 -22 10 -85 36 -139 60 -183 77 -338 161 -546 295 -115
75 -370 273 -370 288 0 5 21 -10 48 -31 26 -22 103 -81 172 -131z m7170 139
c0 -5 -5 -10 -11 -10 -5 0 -7 5 -4 10 3 6 8 10 11 10 2 0 4 -4 4 -10z m-8490
-340 c0 -5 -5 -10 -11 -10 -5 0 -7 5 -4 10 3 6 8 10 11 10 2 0 4 -4 4 -10z
m-53 -36 c-3 -3 -12 -4 -19 -1 -8 3 -5 6 6 6 11 1 17 -2 13 -5z m-27 -18 c0
-2 -11 -28 -25 -57 -23 -50 -23 -54 -7 -61 15 -6 15 -7 1 -7 -9 -1 -19 -11
-22 -23 -6 -20 -8 -20 -28 -6 -13 8 -29 33 -38 56 -17 47 -9 64 40 81 23 8 29
7 29 -5 0 -7 7 -14 15 -14 8 0 15 5 15 10 0 6 -5 10 -11 10 -5 0 -7 5 -4 10 6
9 35 14 35 6z m3073 -443 c-7 -2 -21 -2 -30 0 -10 3 -4 5 12 5 17 0 24 -2 18
-5z m60 -10 c-7 -2 -21 -2 -30 0 -10 3 -4 5 12 5 17 0 24 -2 18 -5z m80 -10
c-7 -2 -19 -2 -25 0 -7 3 -2 5 12 5 14 0 19 -2 13 -5z m94 -9 c-3 -3 -12 -4
-19 -1 -8 3 -5 6 6 6 11 1 17 -2 13 -5z m136 -11 c-7 -2 -19 -2 -25 0 -7 3 -2
5 12 5 14 0 19 -2 13 -5z"/>
<path d="M7137 3083 c-4 -3 -7 -13 -7 -22 1 -13 3 -13 11 2 11 19 8 33 -4 20z"/>
<path d="M7054 2995 c-11 -25 -15 -40 -9 -35 7 6 16 5 25 -3 12 -10 12 -9 0 6
-10 14 -10 21 -2 29 9 9 12 8 12 -4 0 -9 5 -20 11 -24 8 -4 9 4 4 27 -11 52
-18 52 -41 4z"/>
<path d="M6976 2803 c-6 -14 -5 -15 5 -6 7 7 10 15 7 18 -3 3 -9 -2 -12 -12z"/>
<path d="M7006 2805 c-9 -26 -7 -32 5 -12 6 10 9 21 6 23 -2 3 -7 -2 -11 -11z"/>
<path d="M6983 2755 c-3 -9 -3 -18 -1 -21 3 -3 8 4 11 16 6 23 -1 27 -10 5z"/>
<path d="M6936 2752 c-2 -4 -1 -14 5 -22 7 -12 9 -10 9 8 0 23 -5 28 -14 14z"/>
<path d="M7930 3790 c-9 -6 -10 -10 -3 -10 6 0 15 5 18 10 8 12 4 12 -15 0z"/>
<path d="M3040 2805 c0 -5 5 -17 10 -25 5 -8 10 -10 10 -5 0 6 -5 17 -10 25
-5 8 -10 11 -10 5z"/>
<path d="M3080 2723 c0 -15 18 -35 23 -27 3 5 -1 15 -9 22 -8 7 -14 9 -14 5z"/>
<path d="M0 1974 c0 -393 1 -416 18 -409 9 4 38 9 65 11 53 3 70 16 81 59 8
30 52 75 73 75 7 0 43 16 80 36 186 101 194 104 241 104 34 0 58 -7 85 -26 21
-14 44 -23 51 -21 8 3 23 25 35 50 12 24 29 51 39 60 9 8 72 36 139 61 68 25
136 52 152 61 38 19 72 19 97 0 28 -21 57 -18 82 8 24 25 28 37 12 37 -5 0
-22 12 -38 28 -95 88 -160 135 -247 173 -88 39 -178 49 -454 47 -257 -2 -278
0 -411 37 -25 7 -57 16 -72 19 l-28 6 0 -416z"/>
<path d="M3510 2336 c0 -2 7 -7 16 -10 8 -3 12 -2 9 4 -6 10 -25 14 -25 6z"/>
<path d="M3525 2280 c3 -5 8 -10 11 -10 2 0 4 5 4 10 0 6 -5 10 -11 10 -5 0
-7 -4 -4 -10z"/>
<path d="M940 1844 c-27 -5 -132 -23 -166 -30 -44 -8 -55 -106 -15 -119 10 -3
46 4 82 16 35 11 101 23 147 26 76 5 84 8 93 29 10 29 -3 69 -26 78 -17 6 -71
6 -115 0z"/>
</g>
</svg>
