<?xml version="1.0" standalone="no"?>
<!DOCTYPE svg PUBLIC "-//W3C//DTD SVG 20010904//EN"
 "http://www.w3.org/TR/2001/REC-SVG-20010904/DTD/svg10.dtd">
<svg version="1.0" xmlns="http://www.w3.org/2000/svg"
 width="1024.000000pt" height="1024.000000pt" viewBox="0 0 1024.000000 1024.000000"
 preserveAspectRatio="xMidYMid meet">

<g transform="translate(0.000000,1024.000000) scale(0.100000,-0.100000)"
fill="#000000" stroke="none">
<path d="M5420 8724 c-54 -11 -158 -56 -211 -92 -146 -98 -187 -127 -184 -130
2 -2 54 2 115 8 135 15 350 8 435 -14 243 -64 365 -165 249 -204 -70 -24 -247
-23 -394 2 -47 8 74 -50 185 -89 68 -24 96 -29 191 -29 95 -1 117 2 160 22 60
28 101 83 119 157 11 49 10 57 -11 100 -54 112 -201 205 -399 250 -73 17 -212
27 -255 19z"/>
<path d="M4232 8533 c-79 -39 -123 -123 -274 -522 -48 -129 -95 -242 -104
-253 -10 -10 -49 -27 -88 -39 -39 -11 -80 -24 -91 -28 -11 -5 -42 -17 -70 -26
-27 -10 -73 -29 -102 -42 -28 -12 -63 -27 -78 -33 -14 -5 -50 -26 -80 -45 -31
-19 -59 -35 -63 -35 -17 0 -163 -129 -207 -182 -64 -78 -95 -154 -102 -252
-15 -209 69 -380 259 -531 81 -65 215 -151 290 -187 21 -10 38 -26 38 -35 0
-9 8 -25 18 -36 16 -19 16 -20 -3 -10 -61 31 -134 63 -160 69 -16 4 -34 10
-40 14 -5 4 -44 8 -86 9 -80 2 -178 -16 -269 -50 -77 -29 -153 -38 -235 -27
-154 20 -175 20 -221 -7 -49 -29 -148 -134 -200 -212 -81 -122 -166 -333 -204
-503 -64 -294 -60 -658 11 -920 58 -215 151 -390 269 -511 96 -97 144 -124
271 -153 l104 -23 3 -70 3 -70 -50 -33 c-65 -41 -155 -138 -187 -201 -41 -81
-57 -163 -51 -259 8 -141 71 -267 170 -340 l47 -35 0 -295 c0 -170 4 -311 10
-332 20 -70 74 -98 228 -119 72 -10 90 -9 128 6 56 21 91 67 104 135 5 29 10
168 10 310 l0 257 55 38 c95 65 171 185 203 320 15 65 28 93 72 153 29 40 54
71 55 70 2 -2 -1 -30 -5 -63 -9 -64 -23 -196 -40 -385 -6 -63 -15 -149 -20
-190 -19 -154 -23 -257 -11 -293 26 -77 100 -144 244 -219 46 -24 82 -50 86
-62 5 -12 11 -68 15 -126 14 -205 40 -331 86 -405 11 -18 20 -35 20 -37 0 -3
-28 -5 -62 -4 -35 1 -85 -2 -113 -6 -27 -5 -69 -8 -92 -8 -26 1 -43 -4 -43
-10 0 -8 -11 -9 -30 -5 -20 4 -43 1 -65 -9 -19 -10 -51 -15 -76 -13 -49 4 -99
-11 -99 -30 0 -18 -10 -16 -26 4 -12 17 -13 16 -14 -4 0 -17 -6 -23 -21 -23
-18 0 -20 -4 -15 -25 7 -27 -11 -36 -20 -10 -9 24 -24 17 -24 -10 0 -16 6 -25
16 -25 9 0 24 -8 33 -18 20 -22 81 -29 92 -10 7 10 9 9 9 -4 0 -10 -5 -18 -12
-18 -14 0 -2 -13 15 -16 7 -1 24 -5 40 -9 17 -5 27 -3 27 4 0 6 7 11 15 11 8
0 15 -4 15 -10 0 -5 7 -7 15 -4 8 4 15 1 15 -6 0 -7 8 -10 18 -8 10 3 23 -1
30 -9 19 -20 32 -16 33 10 l0 22 9 -22 c5 -13 14 -23 19 -23 6 0 8 6 5 14 -3
7 2 16 10 19 16 7 30 -9 31 -33 0 -8 8 -16 19 -18 11 -3 16 0 12 7 -4 6 0 11
8 11 9 0 16 -4 16 -10 0 -5 4 -10 10 -10 5 0 7 6 4 14 -4 11 0 13 17 9 13 -4
18 -8 11 -11 -6 -2 -12 -10 -12 -17 0 -10 5 -11 24 -2 17 8 21 14 13 20 -8 6
-5 7 6 3 10 -3 23 -6 28 -6 5 0 9 -7 9 -15 0 -23 18 -18 23 7 l4 23 8 -22 c8
-24 20 -29 30 -13 13 21 24 9 14 -16 -8 -23 -8 -25 5 -15 8 7 20 10 26 6 13
-8 13 8 0 21 -6 6 -5 15 1 24 10 13 10 13 7 0 -2 -8 9 -28 24 -44 15 -16 28
-24 28 -19 0 5 -5 14 -11 20 -8 8 -6 14 10 22 16 9 19 9 15 -2 -6 -16 62 -51
71 -37 3 6 -3 10 -15 10 -12 0 -19 4 -15 10 6 10 36 2 47 -14 5 -7 8 -5 8 4 0
13 1 13 11 0 8 -11 9 -8 5 15 -6 28 -5 29 9 11 8 -11 15 -24 15 -29 0 -6 9 0
20 13 11 13 20 18 20 12 0 -6 -5 -14 -10 -17 -6 -4 -8 -15 -5 -26 4 -13 2 -17
-7 -14 -7 3 -20 0 -28 -5 -13 -9 -13 -11 0 -20 8 -5 20 -9 25 -9 6 0 4 3 -2 6
-19 7 -15 24 5 21 10 -2 17 3 17 13 0 9 8 23 17 32 15 15 16 15 21 -2 3 -14
14 -19 41 -19 20 0 33 4 30 9 -3 5 0 9 5 9 15 0 14 -11 -4 -30 -13 -14 -13
-17 0 -17 8 0 12 4 10 8 -3 3 4 9 15 12 11 3 19 11 18 17 -2 7 3 15 10 17 18
7 10 -18 -13 -40 -11 -10 -14 -15 -6 -11 11 5 13 3 8 -9 -4 -10 -2 -17 4 -17
6 0 9 9 6 20 -4 15 0 20 13 20 23 0 35 16 18 23 -7 3 2 3 20 0 27 -5 32 -2 32
13 0 15 2 16 9 5 8 -12 14 -13 35 -3 14 6 26 8 26 3 0 -5 -12 -12 -26 -15 -25
-7 -26 -8 -8 -21 24 -18 40 -19 26 -2 -8 9 -4 12 15 14 16 0 21 -2 14 -7 -10
-5 -8 -9 4 -13 9 -4 13 -3 10 3 -3 6 -1 10 5 10 6 0 8 5 5 10 -3 6 -2 10 3 10
6 0 12 -7 16 -15 3 -8 10 -15 16 -15 6 0 9 4 6 8 -7 12 12 38 21 29 4 -5 1
-12 -7 -17 -12 -8 -12 -10 3 -16 9 -3 14 -10 11 -15 -3 -5 3 -6 12 -2 10 4 15
2 11 -4 -3 -5 0 -10 8 -10 8 0 11 5 8 10 -4 6 2 8 15 5 13 -4 23 0 26 9 4 10
14 13 27 10 17 -5 20 -2 16 14 -3 10 -1 17 3 14 5 -3 13 2 18 11 8 15 10 15
15 0 4 -10 3 -15 -3 -11 -13 8 -13 -26 1 -45 8 -12 9 -10 4 8 -4 14 -2 22 5
22 7 0 14 -9 17 -20 3 -11 9 -20 14 -20 12 0 11 27 -1 35 -6 3 -10 12 -9 18 0
9 2 9 6 0 2 -7 14 -13 26 -13 13 0 17 -3 11 -8 -7 -4 2 -14 25 -24 29 -15 32
-15 14 -2 -23 17 -31 44 -13 44 5 0 14 -8 19 -17 9 -17 12 -16 33 8 25 28 58
45 58 29 0 -6 -6 -10 -14 -10 -8 0 -24 -13 -35 -28 -15 -22 -17 -29 -6 -29 8
0 14 3 13 6 -2 18 3 31 12 31 5 0 8 -6 6 -12 -1 -7 -1 -10 1 -6 2 4 10 6 16 4
7 -1 9 -1 5 1 -5 3 -8 9 -8 14 0 6 4 8 9 5 5 -4 11 -2 13 3 1 5 17 12 33 15
26 6 27 5 8 -3 -29 -13 -30 -31 -2 -38 12 -4 18 -11 15 -20 -3 -8 10 2 29 23
19 20 35 41 35 47 0 5 7 4 15 -3 13 -11 13 -14 -2 -25 -10 -7 -21 -11 -24 -9
-4 2 -12 -3 -19 -11 -7 -8 -9 -15 -5 -15 4 0 1 -8 -6 -17 -7 -10 -9 -15 -5
-11 5 4 16 2 25 -5 14 -10 14 -10 3 5 -8 10 -9 19 -3 22 5 3 12 0 15 -6 3 -7
4 -4 3 7 -1 15 3 19 17 17 11 -2 15 1 11 7 -3 6 1 14 9 17 9 3 16 12 16 19 0
8 5 17 10 20 7 4 9 -3 6 -19 -3 -14 -1 -26 4 -26 11 0 21 30 13 42 -3 7 -1 8
5 4 7 -4 12 -14 12 -21 0 -9 6 -12 15 -9 8 4 17 -1 21 -10 3 -9 10 -13 15 -10
14 8 11 26 -3 18 -10 -5 -10 -4 -2 5 16 18 52 21 79 7 22 -12 23 -15 10 -26
-12 -10 -15 -10 -15 3 0 19 -22 28 -41 16 -11 -7 -11 -9 3 -9 25 0 32 -18 14
-36 -27 -26 -18 -25 24 4 27 18 40 35 40 52 1 14 4 20 6 13 3 -7 13 -9 22 -6
13 5 12 1 -5 -23 l-21 -29 26 -2 c18 -1 21 1 11 8 -11 8 -9 14 14 32 27 22 38
45 15 31 -8 -5 -9 -2 -5 10 4 10 7 20 7 22 0 2 4 4 10 4 5 0 7 -6 4 -14 -3 -8
-1 -17 5 -21 6 -3 11 -11 11 -16 0 -6 -5 -7 -11 -3 -7 4 -10 1 -7 -7 3 -8 15
-13 29 -11 l24 3 -25 -20 c-14 -11 -29 -21 -35 -21 -5 0 -3 4 5 10 8 5 11 12
7 17 -11 10 -27 -17 -20 -34 4 -10 12 -8 37 9 17 12 33 26 34 30 2 4 10 8 18
8 8 0 17 7 20 15 4 8 11 15 16 15 6 0 8 -6 5 -13 -3 -7 5 -13 21 -14 22 -1 23
1 9 8 -9 6 -17 17 -17 25 0 13 2 13 16 -1 21 -20 29 -13 15 13 -8 15 -7 21 3
25 10 4 12 0 9 -14 -4 -15 0 -19 21 -19 20 0 26 5 27 23 0 12 3 17 5 10 3 -7
12 -9 21 -6 13 5 13 3 2 -16 -8 -11 -19 -21 -26 -21 -7 0 -13 -4 -13 -9 0 -5
15 -9 33 -9 17 1 26 3 20 5 -15 5 -17 33 -3 33 6 0 10 8 11 18 0 14 2 14 8 -3
5 -11 5 -21 0 -23 -4 -2 -5 -10 -2 -19 5 -12 9 -11 19 8 7 13 13 31 13 39 0
10 -3 8 -8 -5 -7 -17 -8 -17 -13 7 -3 15 -1 25 3 22 5 -3 9 4 9 16 0 12 -5 18
-10 15 -6 -3 -10 -1 -10 5 0 29 26 -1 34 -38 9 -41 27 -59 24 -24 -3 41 3 60
22 65 12 3 20 14 20 27 0 11 -5 18 -10 15 -6 -3 -10 -13 -10 -21 0 -8 -4 -14
-10 -14 -13 0 -13 46 0 71 12 21 56 26 63 7 4 -10 6 -10 6 0 1 7 14 12 31 12
18 0 29 5 28 12 -2 7 4 13 12 13 47 3 87 40 158 146 87 128 127 238 151 414 6
42 15 85 21 95 5 10 38 34 72 53 86 48 142 99 167 150 26 54 28 148 5 349 -8
77 -13 142 -11 144 2 2 172 15 378 29 206 13 428 29 494 35 66 6 212 17 325
25 194 14 208 16 268 46 45 22 73 44 97 77 20 28 81 162 149 332 492 1220 458
1128 436 1192 -8 23 -27 50 -41 61 -26 19 -28 19 -240 -2 -206 -20 -480 -42
-1164 -96 -176 -13 -381 -30 -455 -36 -160 -13 -142 -12 -158 -10 -14 1 -7 41
9 52 10 6 -132 109 -150 109 -6 0 -11 9 -11 19 0 12 28 43 74 80 153 125 154
181 11 402 -25 38 -47 79 -50 92 -4 16 11 45 60 112 81 113 172 295 222 446
l38 115 100 34 c117 40 253 107 354 175 92 62 208 185 245 259 34 69 66 184
66 235 l-1 36 -27 -55 c-51 -103 -201 -242 -359 -335 -249 -144 -669 -251
-1118 -285 -184 -13 -656 -11 -820 4 -121 11 -99 11 300 11 412 1 503 5 695
35 36 6 124 19 195 31 72 11 168 29 215 40 111 27 321 98 341 115 8 8 21 14
27 14 7 0 12 5 12 10 0 6 7 10 15 10 8 0 15 5 15 10 0 6 4 10 9 10 6 0 23 12
38 26 33 31 31 31 -62 -17 -302 -157 -861 -258 -1420 -259 -257 0 -585 23
-805 56 -675 102 -1162 279 -1473 533 -40 33 -137 140 -137 151 0 3 -8 15 -18
26 -63 69 -69 195 -14 281 78 121 261 252 465 332 96 38 107 39 107 4 0 -44
-36 -207 -54 -244 -20 -42 -59 -89 -75 -89 -6 0 -11 -4 -11 -9 0 -5 -14 -24
-31 -41 -17 -17 -29 -34 -26 -37 4 -3 -3 -19 -14 -35 -20 -27 -20 -30 -3 -74
9 -25 26 -51 37 -59 19 -13 18 -13 -4 -18 -14 -2 -7 -5 19 -6 40 -1 56 -14 30
-24 -7 -3 -3 -6 9 -6 12 -1 25 -6 29 -12 4 -7 20 -9 40 -6 27 5 31 3 22 -7 -7
-7 -22 -11 -33 -9 -19 4 -19 4 -2 -7 14 -9 21 -9 32 0 10 8 19 8 34 1 29 -16
44 -14 37 7 -5 15 -4 15 7 2 23 -27 53 -40 66 -27 8 8 11 7 11 -4 0 -11 11
-15 36 -15 19 0 38 -4 42 -9 10 -14 73 -16 89 -4 9 8 13 8 13 0 0 -6 16 -11
35 -11 19 0 35 -4 35 -9 0 -5 7 -12 16 -15 8 -3 12 -2 9 4 -8 13 1 13 26 0 14
-8 19 -7 19 2 1 8 6 7 14 -5 13 -17 14 -17 21 0 6 17 7 17 21 -1 10 -14 14
-16 14 -5 0 8 3 10 8 4 4 -5 27 -11 52 -12 25 -1 59 -3 75 -4 17 -1 75 -12
130 -24 135 -31 353 -71 505 -92 179 -25 743 -25 915 0 362 53 597 134 735
255 102 89 108 134 60 454 -24 158 -36 214 -59 262 -15 34 -47 121 -71 194
-23 74 -49 136 -56 139 -8 3 -14 12 -14 20 0 8 -4 12 -9 9 -9 -6 -19 19 -66
178 -14 48 -28 86 -30 84 -4 -4 -4 -4 55 -253 45 -186 75 -320 91 -404 10 -49
9 -55 -13 -78 -45 -48 -164 -99 -338 -143 -161 -40 -305 -60 -523 -70 -199
-10 -316 -4 -318 14 -5 55 -3 104 3 100 4 -3 3 7 -2 22 -6 15 -7 30 -3 33 4 3
9 22 10 41 1 36 11 154 17 225 14 142 16 266 5 287 -20 39 -77 83 -208 161
-197 118 -373 199 -646 298 -187 68 -315 86 -383 52z m2362 -609 c3 -8 2 -12
-4 -9 -6 3 -10 10 -10 16 0 14 7 11 14 -7z m121 -681 l7 -148 -37 -32 c-87
-75 -292 -153 -509 -194 -100 -19 -119 -20 -127 -8 -7 11 -11 11 -22 -5 -12
-17 -19 -18 -63 -8 l-49 11 48 -5 c41 -5 47 -3 47 13 0 12 -3 14 -8 6 -7 -11
-85 -3 -122 14 -8 3 -21 5 -27 4 -7 -1 -13 3 -13 9 0 6 4 9 9 5 5 -3 12 -1 15
4 4 5 2 12 -4 16 -16 10 -2 24 20 20 11 -2 22 0 25 5 3 4 15 6 28 3 19 -4 20
-3 5 7 -19 12 -25 60 -8 60 6 0 10 5 10 11 0 5 -4 7 -10 4 -5 -3 -10 -1 -10 4
0 6 5 11 11 11 6 0 9 5 7 10 -2 7 -118 12 -333 14 -184 2 -363 8 -405 15 -164
25 -372 65 -361 69 6 2 51 -3 99 -12 242 -44 645 -59 929 -35 267 22 509 77
648 146 55 28 155 99 168 120 19 31 25 5 32 -134z m-828 -199 c-3 -3 -12 -4
-19 -1 -8 3 -5 6 6 6 11 1 17 -2 13 -5z m-2743 -30 c3 -8 2 -12 -4 -9 -6 3
-10 10 -10 16 0 14 7 11 14 -7z m2752 -52 c-12 -11 -18 7 -10 30 l8 23 4 -23
c2 -13 1 -26 -2 -30z m-2466 -638 c110 -34 224 -114 283 -198 19 -29 18 -28
-23 8 -25 22 -49 45 -55 52 -18 22 -157 94 -199 104 -108 25 -261 3 -381 -55
-136 -65 -298 -247 -395 -443 -19 -39 -39 -70 -45 -68 -5 2 -8 10 -6 17 2 8 7
28 11 45 4 17 33 84 64 149 52 106 66 126 149 209 109 109 212 167 348 196 96
20 141 17 249 -16z m-239 -345 c5 -8 9 -10 9 -4 0 5 5 4 12 -3 7 -7 18 -12 26
-12 28 0 113 -75 170 -150 15 -19 30 -37 34 -40 13 -10 95 -183 113 -240 20
-61 25 -85 30 -145 1 -22 6 -65 10 -95 4 -30 8 -72 10 -93 1 -21 5 -41 9 -44
3 -3 2 -11 -1 -17 -4 -6 -8 -44 -9 -86 -4 -120 -14 -242 -23 -259 -4 -9 -7
-23 -6 -31 0 -8 -3 -18 -8 -21 -4 -3 -9 -22 -10 -41 -1 -20 -6 -33 -11 -30 -5
3 -6 -2 -3 -12 7 -19 -32 -108 -45 -100 -4 3 -5 -1 -3 -8 8 -20 -83 -145 -147
-204 -58 -52 -151 -107 -221 -129 -41 -13 -41 -13 -10 -14 18 -1 44 -6 58 -13
39 -17 161 5 237 43 67 34 168 125 224 201 98 133 186 356 214 538 16 110 33
140 25 45 -24 -272 -158 -583 -313 -727 -106 -98 -226 -148 -355 -148 -116 0
-208 40 -298 131 -183 185 -275 414 -297 745 -25 366 74 705 262 902 52 55 88
75 151 82 69 7 155 -3 166 -21z m3449 -47 c-70 -196 -183 -376 -324 -517 -131
-130 -216 -193 -351 -259 -178 -86 -353 -122 -560 -113 -174 7 -288 43 -408
129 -111 79 -234 253 -240 338 -1 17 -5 30 -9 30 -12 0 -9 38 3 46 6 3 17 20
25 38 l13 31 1 -30 c1 -29 2 -29 11 -7 5 13 14 20 20 16 8 -4 7 -9 -2 -15 -7
-4 -10 -11 -7 -15 4 -3 14 0 21 8 11 10 12 19 5 32 -9 16 -7 17 13 11 13 -4
29 -14 36 -22 10 -12 12 -12 17 5 4 11 6 24 5 28 -1 5 0 34 1 64 l2 55 14 -62
c16 -75 35 -113 72 -148 37 -36 67 -46 130 -46 70 0 132 30 202 100 59 58 66
62 119 64 19 0 29 3 23 5 -19 6 -14 22 7 22 10 0 24 7 31 16 10 11 23 14 51 9
22 -4 40 -2 44 4 3 6 14 11 23 11 15 0 15 -2 2 -10 -10 -6 -11 -10 -2 -10 6 0
21 9 31 19 16 16 20 17 25 5 3 -8 13 -14 23 -13 11 0 13 3 6 6 -7 2 -13 9 -13
14 0 4 7 6 16 2 10 -4 22 1 29 11 10 12 15 14 20 5 6 -8 12 -4 22 12 l14 24
-6 -25 -6 -25 14 24 c11 18 16 20 20 10 4 -10 6 -8 6 5 1 17 2 17 26 2 29 -19
32 -15 8 10 -17 17 -17 17 2 12 11 -3 29 -9 40 -13 11 -4 16 -3 10 2 -15 12
-17 35 -3 31 16 -6 38 15 38 36 0 8 5 18 10 21 6 4 10 -18 10 -58 0 -92 23
-160 71 -208 34 -34 45 -39 85 -39 71 0 121 19 175 68 54 48 108 148 132 242
l14 54 83 13 c46 7 86 15 88 18 3 3 15 5 28 5 l22 0 -28 -78z m-152 -674 c43
-63 62 -104 62 -132 0 -31 -57 -76 -205 -161 -147 -85 -145 -84 -145 -101 0
-8 9 -33 21 -55 11 -22 19 -45 16 -52 -2 -6 -61 -47 -133 -92 -91 -57 -130
-87 -132 -102 -2 -14 13 -39 42 -72 25 -29 46 -56 46 -62 0 -21 -308 -324
-442 -436 -27 -22 -62 -43 -72 -43 -18 0 1 55 58 168 121 241 195 412 277 632
27 74 53 144 58 156 5 12 36 36 68 54 125 70 257 166 346 251 50 48 95 88 99
89 4 0 20 -19 36 -42z m-1884 -355 c3 -4 22 -12 41 -19 26 -8 35 -9 35 0 0 7
3 7 8 1 8 -12 22 -14 115 -18 52 -3 70 -8 81 -23 8 -10 57 -100 108 -198 51
-99 157 -290 235 -424 78 -134 146 -257 152 -273 14 -42 -9 -49 -53 -15 -19
14 -38 26 -41 26 -10 0 -134 83 -211 141 -197 149 -314 253 -314 279 0 9 15
29 34 44 39 31 90 111 81 126 -8 13 -108 64 -178 90 -28 11 -61 25 -72 30 -11
5 -46 20 -77 34 -32 14 -58 29 -58 34 0 5 13 33 30 63 16 30 30 64 30 76 0 26
36 44 54 26z m1080 -73 c16 0 17 -5 11 -36 -6 -34 -88 -263 -105 -293 -5 -10
-14 -2 -32 30 -50 88 -78 142 -78 150 0 4 23 39 51 76 52 68 77 85 114 77 11
-2 28 -4 39 -4z m-478 -51 c17 1 44 -10 44 -19 0 -4 15 -27 34 -49 l35 -41
-38 -81 c-21 -44 -42 -81 -47 -81 -12 -1 -104 207 -112 251 -5 33 -4 34 26 29
19 -3 32 0 32 6 0 6 4 5 9 -2 4 -8 12 -13 17 -13z m-1292 -221 c8 -6 8 -8 0
-8 -7 0 -14 -7 -18 -15 -3 -8 -2 -14 2 -14 4 1 15 1 26 0 15 -1 16 -4 6 -16
-11 -13 -8 -15 16 -15 22 0 25 -3 14 -10 -12 -7 -11 -10 5 -15 36 -12 50 -22
47 -38 -1 -9 9 -17 28 -20 41 -9 41 -46 0 -70 -16 -10 -30 -23 -30 -28 0 -6
-4 -7 -10 -4 -5 3 -10 1 -10 -5 0 -6 -14 -25 -31 -43 -46 -48 -225 -286 -317
-422 -44 -66 -99 -146 -120 -178 l-40 -57 -25 53 c-33 72 -82 126 -141 153
-48 22 -48 22 -27 40 11 10 21 23 21 29 0 5 14 23 31 40 26 26 28 30 12 36
-14 5 -12 7 10 13 16 3 33 4 39 0 6 -4 8 -3 5 3 -4 6 7 17 25 24 51 21 180
121 224 175 70 83 138 196 190 313 27 61 51 105 53 99 2 -7 9 -16 15 -20z
m4570 16 c6 -15 -27 -105 -139 -374 -31 -74 -79 -191 -106 -260 -28 -69 -57
-138 -64 -155 -8 -16 -29 -68 -48 -113 -21 -52 -36 -78 -40 -69 -3 9 -1 18 6
20 9 3 9 7 0 17 -10 11 -14 10 -19 -3 -7 -18 -34 -24 -34 -7 0 6 7 10 15 10 8
0 15 5 15 10 0 14 -23 12 -39 -2 -11 -11 -13 -9 -8 9 3 16 -2 26 -19 38 -14 9
-21 21 -18 30 5 11 -2 15 -26 15 -24 0 -31 -4 -27 -15 4 -8 2 -17 -3 -20 -6
-4 -10 5 -10 19 0 24 4 26 40 26 31 0 38 3 34 15 -7 17 -34 21 -34 5 0 -5 -7
-10 -15 -10 -17 0 -20 16 -5 25 16 10 12 25 -5 19 -17 -7 -20 7 -5 22 8 8 2
11 -18 12 -19 0 -38 -8 -53 -24 -12 -13 -29 -24 -36 -24 -8 0 -16 -7 -19 -15
-9 -23 -28 -18 -63 15 -49 48 -42 60 37 61 l67 1 -50 14 c-27 8 -58 12 -67 10
-10 -2 -18 0 -18 5 0 13 35 29 67 30 25 0 26 1 8 9 -16 7 -11 9 22 9 42 1 42
1 41 36 -1 37 -23 49 -25 15 -1 -11 2 -20 8 -20 5 0 9 -4 9 -10 0 -5 -13 -10
-30 -10 -16 0 -30 5 -30 10 0 6 5 10 10 10 6 0 10 5 10 11 0 6 -8 9 -17 7 -10
-2 -17 -10 -16 -16 4 -15 -7 -15 -41 -2 -28 10 -35 30 -12 30 8 0 17 -7 20
-16 3 -8 10 -12 16 -9 6 4 7 12 3 18 -4 7 -8 14 -8 17 -2 15 -37 70 -44 70 -5
0 -12 -7 -15 -16 -4 -9 -9 -14 -12 -11 -3 3 0 15 6 27 15 27 4 40 -13 15 -12
-15 -14 -16 -14 -1 0 9 4 16 9 16 4 0 8 10 8 23 0 16 3 18 9 8 6 -9 11 -10 15
-2 7 10 -6 16 -27 12 -5 -1 -11 8 -14 19 -6 21 -12 24 -37 14 -9 -3 -13 -11
-9 -18 3 -6 -4 -2 -18 9 -13 11 -26 22 -29 24 -3 2 4 1 16 -3 28 -8 56 21 33
35 -8 5 -21 8 -29 8 -11 -1 -10 -3 3 -6 9 -2 17 -12 17 -21 0 -12 -3 -13 -11
-5 -6 6 -26 9 -45 6 -22 -4 -34 -2 -34 5 0 8 -11 9 -32 5 -22 -4 -29 -3 -24 5
5 8 -2 12 -18 12 -16 0 -26 -6 -26 -15 0 -8 -4 -15 -10 -15 -5 0 -10 7 -10 16
0 8 -7 22 -15 30 -10 10 -15 11 -15 3 0 -8 -4 -8 -12 -2 -9 6 -21 5 -38 -4
l-25 -15 26 6 c19 4 32 -1 48 -18 l22 -23 -32 -7 c-26 -5 -36 -1 -55 19 -13
15 -24 22 -24 16 0 -5 7 -17 16 -26 9 -9 13 -19 9 -23 -4 -4 -18 6 -32 22 -20
24 -27 26 -34 15 -8 -12 -10 -12 -19 1 -5 8 -10 10 -10 4 0 -6 7 -17 15 -24
10 -9 15 -9 15 -1 0 6 5 11 10 11 6 0 10 -6 10 -14 0 -8 6 -17 13 -20 6 -3 1
-3 -12 0 -16 4 -21 3 -17 -5 4 -6 2 -11 -4 -11 -7 0 -10 -6 -7 -12 4 -13 -40
-58 -56 -58 -5 0 -5 9 -2 20 4 12 2 20 -6 20 -8 0 -10 -11 -6 -35 6 -36 -1
-43 -21 -23 -8 8 -12 9 -12 1 0 -6 6 -13 13 -16 9 -3 9 -7 -1 -19 -7 -9 -26
-40 -42 -69 -22 -41 -30 -48 -30 -31 0 13 7 30 15 38 8 9 15 20 15 26 0 6 -9
0 -20 -13 -20 -24 -27 -16 -10 11 6 11 1 22 -23 42 -18 15 -38 27 -45 28 -19
0 7 -36 35 -49 13 -6 23 -16 23 -23 0 -8 -3 -9 -8 -3 -4 6 -20 15 -37 21 -16
6 -29 16 -28 22 2 7 -2 12 -7 12 -6 0 -10 7 -10 15 0 8 6 15 14 15 17 0 76 56
76 72 0 6 -15 -3 -32 -20 -18 -17 -51 -48 -72 -68 -36 -33 -38 -38 -23 -49 10
-7 15 -19 11 -28 -4 -11 3 -17 25 -22 17 -4 31 -11 31 -17 0 -6 -9 -8 -20 -5
-11 3 -20 0 -20 -5 0 -7 -4 -7 -12 0 -9 7 -19 5 -35 -8 -32 -26 -29 -37 15
-45 49 -9 66 -23 51 -41 -16 -19 -169 -20 -169 -1 0 9 13 13 38 13 37 -1 37
-1 34 37 -2 22 1 37 7 37 6 0 11 9 11 20 0 11 5 20 10 20 16 0 12 32 -7 52 -9
11 -11 18 -5 18 7 0 12 5 12 11 0 6 10 19 23 29 l22 19 -22 -6 c-13 -3 -23
-10 -23 -15 0 -6 -7 -7 -16 -4 -12 4 -15 2 -10 -9 4 -12 -3 -15 -34 -15 -36 0
-40 -3 -40 -25 0 -17 4 -23 14 -19 8 3 24 0 36 -6 17 -9 19 -15 11 -23 -9 -9
-14 -8 -21 3 -5 8 -13 11 -17 6 -4 -5 -2 -11 5 -13 6 -3 12 -11 12 -19 0 -8 4
-14 8 -14 5 0 7 -13 4 -30 -2 -16 -9 -30 -14 -30 -6 0 -8 14 -6 30 3 19 1 29
-6 27 -6 -2 -12 -16 -14 -30 -2 -15 -8 -27 -14 -27 -11 0 -7 41 7 73 6 13 4
16 -10 11 -9 -4 -27 -1 -41 6 -13 8 -27 10 -31 5 -5 -4 -2 -10 4 -12 24 -9
-12 -31 -60 -38 -33 -5 -47 -4 -47 4 0 7 9 9 25 5 24 -6 25 -4 25 35 0 30 4
41 15 41 8 0 15 5 15 10 0 6 -9 10 -20 10 -11 0 -20 -4 -20 -10 0 -5 -12 -11
-27 -11 -17 -1 -21 -3 -10 -6 9 -2 17 -11 17 -19 0 -19 -29 -18 -36 1 -4 8
-17 15 -29 15 -13 0 -27 5 -31 12 -4 7 -3 8 5 4 15 -10 91 3 91 15 0 5 -9 9
-20 9 -11 0 -20 5 -20 10 0 6 9 10 20 10 11 0 20 5 20 10 0 6 -9 10 -20 10
-11 0 -20 -4 -20 -10 0 -13 -47 -13 -55 0 -4 6 -3 9 2 8 4 -1 23 1 41 5 27 6
32 11 32 37 0 39 -19 39 -26 0 -5 -24 -12 -30 -32 -30 l-25 0 21 23 c12 12 21
35 20 52 0 17 5 41 11 55 9 22 10 20 6 -15 l-5 -40 15 40 c10 26 12 41 5 43
-10 4 27 84 43 90 4 2 7 17 7 33 0 16 5 29 10 29 6 0 10 -7 10 -15 0 -10 10
-15 28 -15 27 0 52 15 52 32 0 15 -38 8 -44 -8 -3 -8 -11 -12 -16 -9 -8 5 -7
11 1 21 16 20 108 19 115 -1 4 -8 10 -12 15 -9 5 3 6 10 3 16 -5 8 9 9 46 5
31 -4 59 -2 65 3 8 7 31 7 66 1 l54 -10 -53 3 c-55 3 -66 -1 -53 -23 7 -10 13
-10 29 -2 11 6 33 11 48 11 15 0 32 8 39 17 11 15 15 15 29 4 20 -17 21 -5 1
15 -10 11 -31 13 -77 10 -35 -3 -119 -7 -188 -11 -69 -3 -135 -8 -147 -11 -19
-4 -23 0 -23 21 0 17 6 26 23 29 20 5 379 32 937 72 124 9 324 24 445 34 299
24 401 25 409 4z m-4322 -206 c-8 -8 -9 -4 -5 13 4 13 8 18 11 10 2 -7 -1 -18
-6 -23z m63 -5 c7 17 34 24 36 10 8 -58 5 -93 -10 -93 -13 -1 -12 -3 4 -12 19
-11 19 -11 0 -19 -17 -6 -17 -8 -3 -8 10 -1 20 -12 24 -26 4 -16 13 -25 26
-25 15 0 19 -5 15 -20 -3 -11 -2 -18 3 -15 4 3 13 -2 20 -11 7 -8 19 -13 27
-10 8 3 16 -1 20 -9 3 -9 13 -13 22 -10 9 3 29 -6 45 -20 32 -28 41 -31 30
-12 -4 6 6 0 23 -15 16 -16 35 -28 42 -28 7 0 27 -10 44 -22 43 -31 67 -45
100 -59 15 -6 27 -14 27 -18 0 -4 19 -15 43 -26 23 -10 44 -21 47 -24 7 -9 37
-26 99 -57 71 -35 58 -42 -111 -54 -163 -12 -205 -22 -267 -60 -26 -17 -53
-30 -58 -30 -6 0 -22 -9 -36 -20 -15 -12 -29 -21 -31 -21 -16 0 -105 -47 -99
-53 3 -3 2 -6 -3 -6 -6 0 -19 -8 -30 -19 -14 -13 -30 -17 -53 -13 l-33 5 6
236 c4 130 11 268 16 306 5 39 10 103 10 143 0 64 -3 76 -22 92 -20 16 -21 20
-8 35 14 17 15 16 21 -6 5 -21 7 -22 14 -6z m-100 7 c-3 -5 -13 -10 -21 -10
-8 0 -14 5 -14 10 0 6 9 10 21 10 11 0 17 -4 14 -10z m1914 -311 c-90 -227
-75 -208 -161 -205 -98 4 -98 4 -98 19 0 6 40 51 88 100 48 48 119 122 157
165 39 44 71 78 73 77 1 -1 -25 -71 -59 -156z m1601 91 c0 -5 -2 -10 -4 -10
-3 0 -8 5 -11 10 -3 6 -1 10 4 10 6 0 11 -4 11 -10z m-190 -105 c60 -31 76
-113 40 -194 -11 -24 -23 -41 -27 -38 -3 4 0 14 7 22 7 9 13 29 12 46 0 16 4
27 9 24 5 -4 9 1 9 11 0 13 -3 14 -15 4 -8 -7 -15 -20 -15 -30 0 -16 -3 -17
-25 -7 -27 13 -31 22 -14 33 6 3 15 0 20 -7 6 -10 9 -8 9 9 0 13 6 22 15 22
21 0 19 13 -8 44 -17 19 -29 25 -42 20 -14 -6 -16 -4 -10 6 6 10 4 12 -9 7
-10 -4 -24 -7 -32 -7 -8 0 -14 -9 -14 -20 0 -22 -24 -27 -36 -8 -4 6 -3 8 4 4
6 -3 13 -2 16 3 10 16 -39 18 -66 1 -22 -13 -25 -19 -15 -35 6 -11 17 -25 25
-31 8 -6 12 -17 9 -25 -4 -10 -6 -10 -6 3 -1 10 -7 15 -15 12 -7 -3 -20 2 -29
10 -18 19 -31 21 -21 4 4 -7 3 -8 -4 -4 -16 10 -2 38 15 32 10 -4 13 -1 9 12
-4 12 2 26 16 40 56 52 131 66 188 37z m-910 -10 c0 -8 -4 -15 -10 -15 -5 0
-10 7 -10 15 0 8 5 15 10 15 6 0 10 -7 10 -15z m60 -16 c0 -14 -37 -10 -43 4
-4 10 2 13 19 9 13 -2 24 -8 24 -13z m386 -23 c16 -6 16 -8 4 -16 -23 -15 -27
-12 -38 19 -11 32 -2 54 9 23 4 -11 15 -22 25 -26z m-156 24 c0 -5 -4 -10 -10
-10 -5 0 -10 5 -10 10 0 6 5 10 10 10 6 0 10 -4 10 -10z m40 0 c0 -5 -4 -10
-10 -10 -5 0 -10 5 -10 10 0 6 5 10 10 10 6 0 10 -4 10 -10z m860 -10 c0 -5
-7 -10 -15 -10 -8 0 -15 5 -15 10 0 6 7 10 15 10 8 0 15 -4 15 -10z m-840 -25
c0 -8 -2 -15 -4 -15 -2 0 -6 7 -10 15 -3 8 -1 15 4 15 6 0 10 -7 10 -15z
m-350 -10 c0 -8 -4 -15 -10 -15 -5 0 -10 7 -10 15 0 8 5 15 10 15 6 0 10 -7
10 -15z m873 8 c-7 -2 -21 -2 -30 0 -10 3 -4 5 12 5 17 0 24 -2 18 -5z m48
-37 c-10 -12 -18 -13 -33 -5 -15 8 -17 14 -9 22 9 9 14 8 22 -3 8 -11 9 -9 4
10 -7 24 -6 24 11 8 14 -14 15 -20 5 -32z m-416 3 c5 -21 2 -36 -9 -48 -17
-19 -21 -41 -8 -41 5 0 14 10 20 23 10 20 11 19 4 -8 -4 -16 -7 -66 -7 -111 0
-69 3 -86 25 -117 51 -75 145 -97 263 -63 58 17 155 80 194 127 20 23 28 27
39 18 17 -14 19 2 2 20 -11 10 -9 11 6 5 16 -6 17 -3 12 17 -6 21 -6 22 5 5 8
-13 8 -24 0 -43 -6 -13 -9 -28 -6 -33 3 -4 -4 -6 -16 -3 -14 4 -17 8 -9 13 8
5 9 10 2 14 -13 8 -34 -28 -24 -39 4 -5 2 -5 -5 -1 -20 11 -113 -87 -116 -123
-1 -17 -6 -31 -11 -31 -4 0 -6 11 -4 25 3 14 4 25 3 25 0 0 -19 -9 -41 -19
-77 -37 -143 -45 -197 -22 -16 6 -33 8 -39 5 -6 -4 -8 -3 -5 3 6 9 -17 24 -55
37 -12 3 -15 12 -12 31 3 17 1 24 -6 20 -5 -3 -10 2 -10 13 0 26 -28 36 -46
17 -9 -8 -21 -15 -27 -15 -6 0 0 11 13 24 18 16 29 21 38 14 9 -8 12 -5 12 11
0 11 -5 21 -11 21 -8 0 -9 18 -5 62 7 54 6 60 -8 49 -13 -11 -15 -9 -13 16 2
21 -2 28 -15 27 -10 -1 -18 2 -18 7 0 5 -7 9 -15 9 -8 0 -15 4 -15 9 0 15 33
23 41 10 4 -7 14 -9 24 -6 9 4 13 11 10 17 -3 5 3 10 14 10 28 0 27 16 -1 24
-19 5 -21 8 -8 16 23 15 28 12 35 -21z m-488 -21 c-3 -7 -5 -2 -5 12 0 14 2
19 5 13 2 -7 2 -19 0 -25z m773 7 c-4 -11 -5 -26 -3 -32 3 -7 -1 -13 -7 -13
-8 0 -10 10 -8 25 4 17 0 29 -11 35 -13 8 -11 9 10 8 23 -2 26 -6 19 -23z m50
15 c0 -5 -4 -10 -10 -10 -5 0 -10 -5 -10 -10 0 -6 12 -8 28 -4 18 4 23 2 14
-4 -10 -7 -10 -11 3 -22 8 -7 15 -19 15 -26 0 -8 5 -14 10 -14 6 0 10 5 10 11
0 5 4 8 9 4 6 -3 9 -24 8 -46 -1 -30 -5 -38 -16 -34 -15 6 -51 -21 -51 -38 0
-6 11 0 25 13 14 13 25 18 25 12 0 -17 -42 -36 -72 -33 -16 1 -28 -2 -28 -8 0
-6 -8 -11 -17 -11 -15 0 -14 2 3 15 10 8 25 15 32 15 18 0 82 69 71 76 -5 3
-9 -1 -9 -8 0 -9 -3 -9 -10 2 -7 12 -13 12 -27 4 -16 -10 -18 -7 -20 18 -2 26
-1 27 13 13 9 -8 20 -15 25 -15 13 0 11 18 -3 27 -27 17 -48 51 -42 67 7 17
24 22 24 6z m330 -16 c0 -8 -4 -12 -10 -9 -5 3 -10 10 -10 16 0 5 5 9 10 9 6
0 10 -7 10 -16z m-950 -31 c0 -19 -19 -55 -20 -38 0 6 -3 20 -6 33 -5 16 -2
22 10 22 9 0 16 -8 16 -17z m907 -5 c-3 -8 -6 -5 -6 6 -1 11 2 17 5 13 3 -3 4
-12 1 -19z m-1092 2 c3 -5 1 -10 -4 -10 -6 0 -11 5 -11 10 0 6 2 10 4 10 3 0
8 -4 11 -10z m145 -20 c0 -5 -7 -10 -15 -10 -8 0 -15 5 -15 10 0 6 7 10 15 10
8 0 15 -4 15 -10z m950 -15 c4 3 6 -5 2 -17 -5 -21 -6 -21 -13 -2 -4 10 -8 24
-8 29 1 6 3 4 6 -3 2 -6 8 -10 13 -7z m-29 -25 c-3 -3 -9 -9 -12 -13 -4 -4 -6
3 -6 17 0 19 2 22 12 13 7 -7 10 -14 6 -17z m-1081 10 c0 -5 -8 -10 -17 -10
-15 0 -16 2 -3 10 19 12 20 12 20 0z m45 -10 c3 -5 -1 -10 -10 -10 -9 0 -13 5
-10 10 3 6 8 10 10 10 2 0 7 -4 10 -10z m75 -1 c12 -8 10 -9 -7 -4 -20 6 -23
3 -24 -27 0 -18 -3 -27 -6 -20 -2 6 -13 12 -24 12 -10 0 -19 5 -19 11 0 6 9 8
20 4 16 -5 20 -2 20 14 0 23 16 27 40 10z m37 -46 c-3 -10 -5 -2 -5 17 0 19 2
27 5 18 2 -10 2 -26 0 -35z m664 4 c-13 -12 -20 -15 -16 -7 14 26 28 41 33 35
3 -3 -5 -16 -17 -28z m524 13 c-3 -5 -10 -10 -16 -10 -5 0 -9 5 -9 10 0 6 7
10 16 10 8 0 12 -4 9 -10z m-4622 -7 c-7 -2 -19 -2 -25 0 -7 3 -2 5 12 5 14 0
19 -2 13 -5z m2147 -7 c0 -2 -18 -6 -40 -8 -22 -2 -40 0 -40 4 0 5 18 8 40 8
22 0 40 -2 40 -4z m1021 -27 c-9 -22 -10 -22 -10 -3 -1 11 2 24 6 27 12 12 14
0 4 -24z m534 21 c3 -5 -1 -10 -10 -10 -13 0 -16 -6 -11 -27 3 -16 3 -23 0
-16 -3 7 -12 9 -20 6 -8 -3 -14 0 -14 5 0 6 -12 13 -27 15 -22 3 -19 4 12 6
l40 3 -40 13 -40 13 52 1 c28 1 55 -3 58 -9z m-1662 -7 c-7 -2 -21 -2 -30 0
-10 3 -4 5 12 5 17 0 24 -2 18 -5z m1302 -14 c16 -16 -20 -10 -41 7 -18 14
-18 15 6 8 14 -3 29 -10 35 -15z m1255 11 c0 -5 -7 -10 -16 -10 -8 0 -12 5 -9
10 3 6 10 10 16 10 5 0 9 -4 9 -10z m40 0 c0 -5 -5 -10 -11 -10 -5 0 -7 5 -4
10 3 6 8 10 11 10 2 0 4 -4 4 -10z m-2702 -7 c-16 -2 -40 -2 -55 0 -16 2 -3 4
27 4 30 0 43 -2 28 -4z m2465 -25 c-7 -36 -46 -41 -41 -5 2 14 9 21 21 21 9
-1 17 3 17 9 0 6 2 8 4 6 2 -2 2 -16 -1 -31z m42 11 c-4 -5 -1 -9 4 -9 6 0 11
-5 11 -10 0 -6 -7 -6 -19 2 -10 6 -17 17 -14 25 3 7 9 10 14 7 5 -3 7 -10 4
-15z m-1165 1 c0 -5 -4 -10 -10 -10 -5 0 -10 5 -10 10 0 6 5 10 10 10 6 0 10
-4 10 -10z m235 -1 c11 -16 1 -19 -13 -3 -7 8 -8 14 -3 14 5 0 13 -5 16 -11z
m199 -26 c-1 -16 -3 -32 -3 -36 -1 -9 -47 -5 -57 5 -3 4 -3 12 1 18 5 8 11 5
20 -7 13 -17 15 -15 21 15 8 39 20 43 18 5z m-517 -15 c-3 -7 -5 -2 -5 12 0
14 2 19 5 13 2 -7 2 -19 0 -25z m113 22 c0 -5 -4 -10 -10 -10 -5 0 -10 5 -10
10 0 6 5 10 10 10 6 0 10 -4 10 -10z m40 0 c0 -5 -4 -10 -10 -10 -5 0 -10 5
-10 10 0 6 5 10 10 10 6 0 10 -4 10 -10z m275 1 c3 -5 1 -12 -5 -16 -5 -3 -10
1 -10 9 0 18 6 21 15 7z m882 3 c-3 -3 -12 -4 -19 -1 -8 3 -5 6 6 6 11 1 17
-2 13 -5z m-412 -14 c-3 -5 -10 -10 -16 -10 -5 0 -9 5 -9 10 0 6 7 10 16 10 8
0 12 -4 9 -10z m335 -9 c0 -5 -7 -12 -16 -15 -14 -5 -15 -4 -4 9 14 17 20 19
20 6z m43 -16 c-10 -7 -20 -12 -21 -10 -7 7 23 33 31 28 5 -3 0 -11 -10 -18z
m84 19 c-3 -3 -12 -4 -19 -1 -8 3 -5 6 6 6 11 1 17 -2 13 -5z m-227 -14 c0 -5
-5 -10 -11 -10 -5 0 -7 5 -4 10 3 6 8 10 11 10 2 0 4 -4 4 -10z m280 -5 c0 -8
-4 -15 -10 -15 -5 0 -10 7 -10 15 0 8 5 15 10 15 6 0 10 -7 10 -15z m-1300 -5
c0 -5 -4 -10 -10 -10 -5 0 -10 5 -10 10 0 6 5 10 10 10 6 0 10 -4 10 -10z m40
0 c0 -5 -4 -10 -10 -10 -5 0 -10 5 -10 10 0 6 5 10 10 10 6 0 10 -4 10 -10z
m1043 -30 c-7 -8 -22 24 -16 34 4 5 10 1 13 -10 4 -10 6 -21 3 -24z m-863 -5
c0 -5 -5 -3 -10 5 -5 8 -10 20 -10 25 0 6 5 3 10 -5 5 -8 10 -19 10 -25z
m1027 29 c-3 -3 -12 -4 -19 -1 -8 3 -5 6 6 6 11 1 17 -2 13 -5z m-1947 -16 c0
-7 -9 -31 -19 -54 l-19 -41 -191 -13 c-257 -18 -268 -32 -71 -94 47 -15 113
-30 146 -33 l61 -6 -14 -45 c-7 -26 -17 -50 -21 -54 -4 -4 -131 31 -282 77
-151 47 -302 92 -335 101 -33 8 -112 31 -175 51 l-115 36 420 33 c231 18 454
37 495 42 109 13 120 13 120 0z m670 -4 c0 -8 -4 -12 -10 -9 -5 3 -10 10 -10
16 0 5 5 9 10 9 6 0 10 -7 10 -16z m157 10 c-3 -3 -12 -4 -19 -1 -8 3 -5 6 6
6 11 1 17 -2 13 -5z m863 -5 c0 -15 -18 -19 -23 -6 -3 8 1 14 9 14 8 0 14 -4
14 -8z m30 2 c0 -6 -4 -13 -10 -16 -5 -3 -10 1 -10 9 0 9 5 16 10 16 6 0 10
-4 10 -9z m105 -1 c3 -5 -1 -10 -10 -10 -9 0 -13 5 -10 10 3 6 8 10 10 10 2 0
7 -4 10 -10z m53 -1 c-10 -5 -18 -17 -18 -24 0 -8 -6 -15 -14 -15 -20 0 -9 38
13 43 29 8 36 7 19 -4z m-918 -9 c0 -5 -4 -10 -10 -10 -5 0 -10 5 -10 10 0 6
5 10 10 10 6 0 10 -4 10 -10z m60 0 c0 -5 -4 -10 -10 -10 -5 0 -10 5 -10 10 0
6 5 10 10 10 6 0 10 -4 10 -10z m40 0 c0 -5 -4 -10 -10 -10 -5 0 -10 5 -10 10
0 6 5 10 10 10 6 0 10 -4 10 -10z m900 -4 c0 -8 -4 -17 -8 -20 -4 -2 -8 4 -8
15 0 10 4 19 8 19 4 0 8 -6 8 -14z m40 -14 c0 -15 -2 -15 -10 -2 -13 20 -13
33 0 25 6 -3 10 -14 10 -23z m-860 -12 c0 -5 -4 -10 -10 -10 -5 0 -10 5 -10
10 0 6 5 10 10 10 6 0 10 -4 10 -10z m574 -6 c3 -8 2 -12 -4 -9 -6 3 -10 10
-10 16 0 14 7 11 14 -7z m-639 -4 c3 -5 -1 -10 -9 -10 -9 0 -16 5 -16 10 0 6
4 10 9 10 6 0 13 -4 16 -10z m542 -1 c9 -9 8 -15 -3 -26 -12 -13 -16 -13 -28
0 -11 11 -12 17 -3 26 14 14 20 14 34 0z m503 1 c0 -5 -7 -7 -15 -4 -8 4 -15
8 -15 10 0 2 7 4 15 4 8 0 15 -4 15 -10z m-240 -10 c0 -5 -5 -10 -11 -10 -5 0
-7 5 -4 10 3 6 8 10 11 10 2 0 4 -4 4 -10z m-1160 -10 c0 -5 -4 -10 -10 -10
-5 0 -10 5 -10 10 0 6 5 10 10 10 6 0 10 -4 10 -10z m-3291 -26 c55 -71 68
-237 24 -335 -26 -58 -86 -125 -134 -149 l-37 -19 -7 42 c-10 51 -12 60 -23
115 -5 23 -7 42 -4 42 3 0 -1 6 -10 13 -9 6 -18 23 -20 37 -2 14 -9 24 -16 23
-6 -2 -12 4 -12 12 0 8 -5 15 -10 15 -6 0 -15 11 -20 25 -6 17 -14 23 -25 19
-9 -4 -15 -3 -13 2 2 5 -6 19 -17 30 -93 100 -90 109 40 106 61 -1 96 4 150
22 91 31 109 31 134 0z m3193 11 c8 3 21 -1 28 -10 7 -9 8 -15 2 -15 -6 0 -13
6 -16 13 -5 10 -7 10 -12 0 -8 -19 -17 -16 -33 10 -13 20 -13 21 1 9 9 -7 22
-10 30 -7z m538 11 c0 -3 -4 -8 -10 -11 -5 -3 -10 -1 -10 4 0 6 5 11 10 11 6
0 10 -2 10 -4z m895 -34 c22 -12 33 -21 25 -21 -8 -1 -28 8 -45 19 -16 11 -39
20 -50 21 l-20 0 20 8 c11 5 22 5 25 1 3 -4 23 -17 45 -28z m-1208 22 c-3 -3
-12 -4 -19 -1 -8 3 -5 6 6 6 11 1 17 -2 13 -5z m893 -4 c0 -5 -4 -10 -10 -10
-5 0 -10 5 -10 10 0 6 5 10 10 10 6 0 10 -4 10 -10z m160 0 c0 -5 -4 -10 -10
-10 -5 0 -10 5 -10 10 0 6 5 10 10 10 6 0 10 -4 10 -10z m40 3 c0 -10 49 -33
71 -33 9 0 22 -7 29 -15 9 -10 9 -15 1 -15 -6 0 -11 5 -11 10 0 6 -9 10 -21
10 -11 0 -29 5 -39 10 -15 8 -21 6 -29 -7 -8 -15 -12 -16 -22 -5 -11 10 -10
12 4 12 20 0 22 11 5 28 -9 9 -9 12 0 12 7 0 12 -3 12 -7z m228 -20 c7 -18 11
-22 11 -10 1 9 6 17 11 17 6 0 3 -16 -6 -37 -9 -21 -32 -80 -52 -131 -26 -67
-38 -88 -44 -77 -6 10 -2 24 13 44 12 16 22 43 23 59 1 17 4 28 8 26 13 -8 18
34 8 61 -6 15 -9 30 -6 32 2 3 7 -5 11 -16 3 -12 11 -21 16 -21 12 0 12 1 -6
44 -8 20 -11 36 -6 36 5 0 14 -12 19 -27z m-387 4 c-6 -8 -8 -17 -4 -20 3 -4
1 -7 -5 -7 -7 0 -12 9 -12 20 0 12 7 20 16 20 13 0 14 -3 5 -13z m329 3 c0 -5
-2 -10 -4 -10 -3 0 -8 5 -11 10 -3 6 -1 10 4 10 6 0 11 -4 11 -10z m-410 -19
c0 -6 -4 -13 -10 -16 -5 -3 -10 1 -10 9 0 9 5 16 10 16 6 0 10 -4 10 -9z m163
2 c-7 -2 -19 -2 -25 0 -7 3 -2 5 12 5 14 0 19 -2 13 -5z m-303 -13 c0 -5 -2
-10 -4 -10 -3 0 -8 5 -11 10 -3 6 -1 10 4 10 6 0 11 -4 11 -10z m100 -10 c0
-5 -7 -10 -16 -10 -8 0 -12 5 -9 10 3 6 10 10 16 10 5 0 9 -4 9 -10z m240 -5
c0 -8 -9 -15 -20 -15 -11 0 -20 5 -20 11 0 5 5 7 10 4 6 -3 10 -1 10 4 0 6 5
11 10 11 6 0 10 -7 10 -15z m-73 -1 c-3 -3 -12 -4 -19 -1 -8 3 -5 6 6 6 11 1
17 -2 13 -5z m-327 -8 c0 -2 -7 -7 -16 -10 -8 -3 -12 -2 -9 4 6 10 25 14 25 6z
m50 -12 c0 -8 -5 -12 -10 -9 -6 4 -8 11 -5 16 9 14 15 11 15 -7z m157 10 c-3
-3 -12 -4 -19 -1 -8 3 -5 6 6 6 11 1 17 -2 13 -5z m98 -12 c-3 -3 -11 0 -18 7
-9 10 -8 11 6 5 10 -3 15 -9 12 -12z m309 7 c-4 -7 -44 0 -44 7 0 2 11 3 24 2
14 -1 23 -5 20 -9z m-177 -5 c-3 -3 -12 -4 -19 -1 -8 3 -5 6 6 6 11 1 17 -2
13 -5z m70 0 c-3 -3 -12 -4 -19 -1 -8 3 -5 6 6 6 11 1 17 -2 13 -5z m-317 -24
c0 -5 -8 -10 -17 -10 -15 0 -16 2 -3 10 19 12 20 12 20 0z m430 0 c0 -5 -5
-10 -11 -10 -5 0 -7 5 -4 10 3 6 8 10 11 10 2 0 4 -4 4 -10z m-210 -10 c0 -5
-7 -10 -15 -10 -8 0 -15 5 -15 10 0 6 7 10 15 10 8 0 15 -4 15 -10z m73 -19
c-4 -16 -8 -19 -14 -10 -4 7 -3 19 3 26 14 18 19 12 11 -16z m-350 5 c4 -10 1
-13 -9 -9 -7 3 -14 9 -14 14 0 14 17 10 23 -5z m-319 -22 c3 -8 2 -12 -4 -9
-6 3 -10 10 -10 16 0 14 7 11 14 -7z m386 -4 c8 -5 11 -10 5 -10 -5 0 -17 5
-25 10 -8 5 -10 10 -5 10 6 0 17 -5 25 -10z m155 0 c-3 -5 -1 -10 4 -10 6 0
11 -5 11 -10 0 -6 -8 -5 -20 2 -14 9 -16 14 -7 20 16 10 19 10 12 -2z m258 3
c-7 -2 -19 -2 -25 0 -7 3 -2 5 12 5 14 0 19 -2 13 -5z m-633 -13 c0 -5 -2 -10
-4 -10 -3 0 -8 5 -11 10 -3 6 -1 10 4 10 6 0 11 -4 11 -10z m297 4 c-3 -3 -12
-4 -19 -1 -8 3 -5 6 6 6 11 1 17 -2 13 -5z m33 -8 c0 -2 -7 -7 -16 -10 -8 -3
-12 -2 -9 4 6 10 25 14 25 6z m37 -32 c-3 -3 -12 -4 -19 -1 -8 3 -5 6 6 6 11
1 17 -2 13 -5z m183 2 c0 -3 -4 -8 -10 -11 -5 -3 -10 -1 -10 4 0 6 5 11 10 11
6 0 10 -2 10 -4z m-13 -52 c-3 -3 -12 -4 -19 -1 -8 3 -5 6 6 6 11 1 17 -2 13
-5z m50 -36 c-3 -7 -5 -2 -5 12 0 14 2 19 5 13 2 -7 2 -19 0 -25z m-1549 -370
c5 -70 34 -302 38 -310 3 -4 -2 -23 -10 -42 -12 -29 -28 -42 -84 -69 -66 -32
-233 -89 -297 -102 -16 -3 -41 -8 -55 -11 -63 -13 -212 -33 -277 -37 -65 -4
-71 -3 -70 14 1 11 4 19 8 19 4 0 9 14 13 32 6 30 7 30 25 14 22 -20 40 -4 21
19 -15 18 -14 18 26 6 34 -10 71 9 58 30 -5 8 -3 10 6 4 7 -4 16 -2 22 6 7 10
7 7 3 -8 -4 -14 -2 -23 4 -23 6 0 11 9 11 20 0 11 7 20 15 20 22 0 79 37 64
42 -7 2 9 4 36 4 42 0 50 2 47 17 -2 9 2 17 8 17 5 0 11 -8 11 -17 1 -17 2
-17 6 0 4 15 15 21 36 18 4 0 7 3 7 9 0 5 6 7 13 4 8 -3 18 6 25 21 7 15 20
25 32 25 11 0 20 5 20 10 0 6 10 10 23 10 20 0 63 20 43 20 -5 0 -3 7 4 15 7
8 16 12 21 9 11 -6 39 20 39 36 0 6 5 8 11 4 8 -4 9 0 4 15 -5 16 -3 20 9 15
13 -5 16 3 17 45 1 28 3 56 4 61 1 6 3 24 4 40 1 26 5 30 29 30 24 0 28 -4 30
-32z m-618 -448 c0 -5 -4 -10 -10 -10 -5 0 -10 5 -10 10 0 6 5 10 10 10 6 0
10 -4 10 -10z m-413 -72 c-2 -13 -4 -5 -4 17 -1 22 1 32 4 23 2 -10 2 -28 0
-40z m13 -53 c0 -33 -25 -33 -26 0 -1 15 3 25 12 25 8 0 14 -10 14 -25z m740
-246 c0 -107 -46 -208 -112 -241 -33 -17 -39 -18 -72 -4 -66 27 -78 122 -24
180 10 11 18 24 18 29 0 4 9 5 20 2 14 -5 20 -2 20 9 0 9 6 16 14 16 8 0 16 7
20 15 3 8 15 15 26 15 11 0 23 7 26 15 4 9 19 15 35 15 28 0 29 -1 29 -51z
m-711 -8 c7 -5 25 -49 38 -97 45 -159 50 -179 56 -204 l6 -25 -162 0 c-191 0
-277 -5 -294 -18 -9 -6 -19 -5 -28 3 -12 10 -19 10 -27 2 -7 -7 -19 -7 -34 -2
-14 6 -24 6 -24 1 0 -5 -16 -9 -35 -8 -19 1 -35 5 -35 10 0 4 -5 5 -10 2 -6
-4 -27 -8 -48 -9 -20 -2 -47 -6 -59 -10 -30 -10 -29 -2 7 90 17 42 42 115 56
162 13 47 29 91 35 99 9 10 68 13 278 13 146 0 272 -4 280 -9z m421 -521 c0
-5 -4 -10 -10 -10 -5 0 -10 5 -10 10 0 6 5 10 10 10 6 0 10 -4 10 -10z m-45
-10 c3 -5 -1 -10 -10 -10 -9 0 -13 5 -10 10 3 6 8 10 10 10 2 0 7 -4 10 -10z
m-2415 -51 c0 -5 -7 -9 -15 -9 -8 0 -15 7 -15 15 0 9 6 12 15 9 8 -4 15 -10
15 -15z m100 -29 c0 -5 -7 -10 -15 -10 -8 0 -15 5 -15 10 0 6 7 10 15 10 8 0
15 -4 15 -10z m124 -14 c-3 -9 -10 -13 -15 -10 -5 3 -3 11 4 19 15 16 19 13
11 -9z m31 -15 c3 -5 1 -12 -5 -16 -5 -3 -10 1 -10 9 0 18 6 21 15 7z m2142 3
c-3 -3 -12 -4 -19 -1 -8 3 -5 6 6 6 11 1 17 -2 13 -5z m-327 -24 c0 -5 -8 -10
-17 -10 -15 0 -16 2 -3 10 19 12 20 12 20 0z m265 -10 c3 -5 1 -10 -4 -10 -6
0 -11 5 -11 10 0 6 2 10 4 10 3 0 8 -4 11 -10z m-240 -10 c-3 -5 -12 -10 -18
-10 -7 0 -6 4 3 10 19 12 23 12 15 0z m145 6 c0 -2 -8 -10 -17 -17 -16 -13
-17 -12 -4 4 13 16 21 21 21 13z m-250 -12 c0 -8 -19 -13 -24 -6 -3 5 1 9 9 9
8 0 15 -2 15 -3z m40 -14 c0 -5 -4 -10 -10 -10 -5 0 -10 5 -10 10 0 6 5 10 10
10 6 0 10 -4 10 -10z m-97 -17 c-3 -6 -11 -9 -19 -6 -20 7 -17 19 5 19 11 0
17 -6 14 -13z m267 8 c0 -6 -4 -13 -10 -16 -5 -3 -10 1 -10 9 0 9 5 16 10 16
6 0 10 -4 10 -9z m-653 -7 c-3 -3 -12 -4 -19 -1 -8 3 -5 6 6 6 11 1 17 -2 13
-5z m233 -2 c0 -5 -11 -15 -25 -22 -13 -7 -22 -16 -20 -21 3 -4 -4 -5 -15 -2
-21 6 -18 23 4 23 8 0 19 7 26 15 14 16 30 20 30 7z m-820 -12 c0 -5 -4 -10
-9 -10 -5 0 -17 -3 -27 -7 -16 -6 -17 -5 -4 10 17 18 40 22 40 7z m360 -9 c0
-11 -4 -23 -10 -26 -6 -4 -10 5 -10 19 0 14 5 26 10 26 6 0 10 -9 10 -19z m66
-2 c3 -5 -2 -6 -11 -3 -10 4 -15 2 -13 -6 2 -6 -8 -16 -22 -21 -24 -9 -24 -8
-6 6 11 8 15 15 10 15 -6 0 -11 6 -11 13 0 15 43 11 53 -4z"/>
<path d="M5960 7070 c0 -13 11 -13 30 0 12 8 11 10 -7 10 -13 0 -23 -4 -23
-10z"/>
<path d="M5940 6990 c0 -5 5 -10 10 -10 6 0 10 5 10 10 0 6 -4 10 -10 10 -5 0
-10 -4 -10 -10z"/>
<path d="M5970 6960 c19 -13 30 -13 30 0 0 6 -10 10 -22 10 -19 0 -20 -2 -8
-10z"/>
<path d="M5868 6926 c4 -6 7 -15 7 -20 0 -5 7 -10 15 -12 8 -1 23 -5 33 -9 10
-4 17 -3 17 4 0 5 10 19 22 31 12 11 17 20 12 20 -6 0 -15 -5 -21 -11 -7 -7
-17 -8 -25 -3 -19 13 -68 12 -60 0z m55 -5 c18 -2 4 -17 -16 -17 -13 0 -24 5
-24 12 0 6 7 10 16 9 9 -2 19 -4 24 -4z"/>
<path d="M5990 6902 c0 -6 -8 -13 -17 -15 -16 -4 -16 -5 -1 -6 18 -1 34 16 24
26 -3 4 -6 1 -6 -5z"/>
<path d="M5517 5727 c-4 -10 2 -13 20 -9 18 3 21 7 11 13 -18 12 -25 11 -31
-4z"/>
<path d="M8456 4535 c-3 -9 -6 -22 -5 -28 0 -7 5 -1 10 12 5 13 8 26 5 28 -2
2 -6 -3 -10 -12z"/>
<path d="M8184 4521 c4 -6 -11 -11 -36 -13 -33 -2 -37 -4 -18 -8 14 -3 40 -3
58 0 32 5 32 5 11 18 -11 8 -18 9 -15 3z"/>
<path d="M8010 4509 c-13 -7 -12 -9 2 -9 9 0 19 -6 21 -12 3 -8 6 -7 6 4 1 22
-11 29 -29 17z"/>
<path d="M8077 4505 c-4 -8 -2 -17 3 -20 6 -4 10 3 10 14 0 25 -6 27 -13 6z"/>
<path d="M7970 4495 c7 -8 16 -15 21 -15 5 0 6 7 3 15 -4 8 -13 15 -21 15 -13
0 -13 -3 -3 -15z"/>
<path d="M7803 4492 c27 -2 37 -8 37 -20 0 -13 2 -14 8 -4 5 7 30 14 55 15 86
4 48 15 -45 14 -51 -1 -76 -3 -55 -5z"/>
<path d="M7738 4483 c7 -3 16 -2 19 1 4 3 -2 6 -13 5 -11 0 -14 -3 -6 -6z"/>
<path d="M7530 4470 c-12 -8 -9 -10 13 -10 15 0 27 5 27 10 0 13 -20 13 -40 0z"/>
<path d="M7445 4460 c3 -5 10 -10 16 -10 5 0 9 5 9 10 0 6 -7 10 -16 10 -8 0
-12 -4 -9 -10z"/>
<path d="M7200 4450 c-58 -4 -65 -7 -68 -27 -4 -28 14 -30 21 -3 6 25 44 27
50 3 4 -16 5 -16 6 1 1 15 7 17 29 13 15 -3 34 -2 41 2 21 13 -6 17 -79 11z"/>
<path d="M7368 4453 c7 -3 16 -2 19 1 4 3 -2 6 -13 5 -11 0 -14 -3 -6 -6z"/>
<path d="M7170 4420 c0 -5 5 -10 10 -10 6 0 10 5 10 10 0 6 -4 10 -10 10 -5 0
-10 -4 -10 -10z"/>
<path d="M7585 4420 c-3 -5 -1 -10 4 -10 6 0 11 5 11 10 0 6 -2 10 -4 10 -3 0
-8 -4 -11 -10z"/>
<path d="M7220 4410 c0 -5 5 -10 10 -10 6 0 10 5 10 10 0 6 -4 10 -10 10 -5 0
-10 -4 -10 -10z"/>
<path d="M7318 4413 c7 -3 16 -2 19 1 4 3 -2 6 -13 5 -11 0 -14 -3 -6 -6z"/>
<path d="M6870 4384 c0 -17 31 -47 39 -38 3 4 0 9 -6 11 -22 8 -14 22 15 25
24 3 22 4 -10 9 -26 3 -38 1 -38 -7z"/>
<path d="M7168 4393 c7 -3 16 -2 19 1 4 3 -2 6 -13 5 -11 0 -14 -3 -6 -6z"/>
<path d="M8090 4390 c0 -5 5 -10 10 -10 6 0 10 5 10 10 0 6 -4 10 -10 10 -5 0
-10 -4 -10 -10z"/>
<path d="M7054 4356 c0 -13 4 -22 9 -19 10 6 9 31 -2 37 -5 3 -8 -5 -7 -18z"/>
<path d="M7100 4370 c0 -5 5 -10 10 -10 6 0 10 5 10 10 0 6 -4 10 -10 10 -5 0
-10 -4 -10 -10z"/>
<path d="M7182 4368 c-14 -14 -16 -28 -3 -28 9 0 24 30 18 36 -2 2 -9 -2 -15
-8z"/>
<path d="M7020 4360 c0 -5 5 -10 10 -10 6 0 10 5 10 10 0 6 -4 10 -10 10 -5 0
-10 -4 -10 -10z"/>
<path d="M6950 4351 c0 -10 19 -25 25 -20 1 2 -3 10 -11 17 -8 7 -14 8 -14 3z"/>
<path d="M7126 4336 c3 -9 11 -16 16 -16 13 0 5 23 -10 28 -7 2 -10 -2 -6 -12z"/>
<path d="M6698 4333 c7 -3 16 -2 19 1 4 3 -2 6 -13 5 -11 0 -14 -3 -6 -6z"/>
<path d="M6870 4331 c0 -5 -6 -11 -12 -14 -7 -2 -3 -2 10 0 12 2 22 -1 22 -7
0 -5 5 -10 10 -10 17 0 11 19 -10 30 -12 6 -20 7 -20 1z"/>
<path d="M7095 4331 c3 -5 -2 -12 -10 -14 -12 -4 -12 -5 1 -3 19 1 32 26 14
26 -6 0 -9 -4 -5 -9z"/>
<path d="M7210 4330 c0 -5 5 -10 10 -10 6 0 10 5 10 10 0 6 -4 10 -10 10 -5 0
-10 -4 -10 -10z"/>
<path d="M6650 4294 c0 -14 -4 -33 -9 -42 -4 -9 -11 -35 -14 -57 -4 -22 -4
-34 0 -26 5 11 7 11 14 0 6 -9 7 -3 3 17 -4 19 -1 36 8 45 14 15 38 64 38 79
0 6 -9 10 -20 10 -15 0 -20 -7 -20 -26z"/>
<path d="M6735 4310 c3 -5 8 -10 11 -10 2 0 4 5 4 10 0 6 -5 10 -11 10 -5 0
-7 -4 -4 -10z"/>
<path d="M6998 4313 c6 -2 18 -2 25 0 6 3 1 5 -13 5 -14 0 -19 -2 -12 -5z"/>
<path d="M7608 4313 c7 -3 16 -2 19 1 4 3 -2 6 -13 5 -11 0 -14 -3 -6 -6z"/>
<path d="M7030 4295 c-7 -9 -8 -15 -2 -15 5 0 12 7 16 15 3 8 4 15 2 15 -2 0
-9 -7 -16 -15z"/>
<path d="M8170 4300 c0 -5 5 -10 11 -10 5 0 7 5 4 10 -3 6 -8 10 -11 10 -2 0
-4 -4 -4 -10z"/>
<path d="M6717 4286 c-4 -10 -7 -25 -6 -34 0 -11 4 -9 10 7 5 13 8 29 6 35 -2
5 -6 2 -10 -8z"/>
<path d="M6940 4290 c0 -3 5 -12 11 -20 8 -11 12 -12 16 -2 2 6 11 12 19 12 8
0 14 4 14 10 0 5 -13 8 -30 7 -16 -1 -30 -4 -30 -7z"/>
<path d="M7105 4290 c3 -5 8 -10 11 -10 2 0 4 5 4 10 0 6 -5 10 -11 10 -5 0
-7 -4 -4 -10z"/>
<path d="M7060 4280 c0 -5 5 -10 10 -10 6 0 10 5 10 10 0 6 -4 10 -10 10 -5 0
-10 -4 -10 -10z"/>
<path d="M7133 4274 c-3 -8 -1 -20 6 -27 8 -8 11 -4 11 16 0 30 -7 35 -17 11z"/>
<path d="M7280 4270 c0 -5 7 -7 15 -4 8 4 15 8 15 10 0 2 -7 4 -15 4 -8 0 -15
-4 -15 -10z"/>
<path d="M7885 4270 c4 -6 11 -8 16 -5 14 9 11 15 -7 15 -8 0 -12 -5 -9 -10z"/>
<path d="M6994 4255 c-10 -8 -14 -14 -9 -15 15 0 40 18 34 24 -3 3 -14 -1 -25
-9z"/>
<path d="M7422 4254 c-7 -8 -8 -14 -3 -14 10 0 25 19 20 25 -2 1 -10 -3 -17
-11z"/>
<path d="M7485 4250 c-3 -5 3 -10 14 -10 12 0 21 5 21 10 0 6 -6 10 -14 10 -8
0 -18 -4 -21 -10z"/>
<path d="M6797 4239 c7 -7 15 -10 18 -7 3 3 -2 9 -12 12 -14 6 -15 5 -6 -5z"/>
<path d="M7078 4243 c7 -3 16 -2 19 1 4 3 -2 6 -13 5 -11 0 -14 -3 -6 -6z"/>
<path d="M7848 4243 c7 -3 16 -2 19 1 4 3 -2 6 -13 5 -11 0 -14 -3 -6 -6z"/>
<path d="M7810 4229 c0 -5 5 -7 10 -4 6 3 10 8 10 11 0 2 -4 4 -10 4 -5 0 -10
-5 -10 -11z"/>
<path d="M7948 4233 c7 -3 16 -2 19 1 4 3 -2 6 -13 5 -11 0 -14 -3 -6 -6z"/>
<path d="M6714 4215 c-3 -8 -4 -20 -2 -27 3 -7 7 -1 10 15 6 29 1 36 -8 12z"/>
<path d="M8331 4214 c0 -11 3 -14 6 -6 3 7 2 16 -1 19 -3 4 -6 -2 -5 -13z"/>
<path d="M6765 4210 c-3 -5 3 -10 14 -10 12 0 21 5 21 10 0 6 -6 10 -14 10 -8
0 -18 -4 -21 -10z"/>
<path d="M7855 4210 c3 -5 8 -10 11 -10 2 0 4 5 4 10 0 6 -5 10 -11 10 -5 0
-7 -4 -4 -10z"/>
<path d="M7973 4213 c-15 -5 -17 -23 -4 -23 5 0 11 7 15 15 3 8 4 15 3 14 -1
0 -8 -3 -14 -6z"/>
<path d="M8000 4210 c0 -5 5 -10 11 -10 5 0 7 5 4 10 -3 6 -8 10 -11 10 -2 0
-4 -4 -4 -10z"/>
<path d="M7121 4194 c0 -11 3 -14 6 -6 3 7 2 16 -1 19 -3 4 -6 -2 -5 -13z"/>
<path d="M7665 4190 c-3 -5 -1 -10 4 -10 6 0 11 5 11 10 0 6 -2 10 -4 10 -3 0
-8 -4 -11 -10z"/>
<path d="M7827 4179 c-3 -10 -1 -22 4 -25 5 -3 9 -1 9 5 0 5 7 11 15 13 13 2
12 5 -4 15 -16 10 -20 9 -24 -8z"/>
<path d="M7880 4191 c0 -5 11 -8 25 -7 33 1 33 16 0 16 -14 0 -25 -4 -25 -9z"/>
<path d="M8013 4183 c-16 -6 -17 -33 -1 -33 6 0 8 3 5 7 -4 3 -2 12 4 20 12
14 11 14 -8 6z"/>
<path d="M6761 4176 c2 -2 18 -6 34 -10 22 -5 26 -4 15 4 -14 9 -59 15 -49 6z"/>
<path d="M7006 4165 c-3 -8 -1 -15 4 -15 6 0 10 7 10 15 0 8 -2 15 -4 15 -2 0
-6 -7 -10 -15z"/>
<path d="M7058 4170 c30 -13 28 -34 -9 -70 -26 -25 -30 -32 -19 -45 16 -19 33
-9 25 15 -3 10 0 22 7 26 6 4 14 2 16 -4 2 -7 11 -12 20 -12 15 1 14 3 -2 15
-11 8 -17 18 -13 21 4 4 13 2 20 -4 8 -7 17 -9 20 -5 12 11 8 23 -8 23 -18 0
-20 17 -2 23 19 7 6 14 -38 21 -30 4 -35 3 -17 -4z"/>
<path d="M7170 4173 c0 -17 32 -25 44 -12 8 9 7 10 -5 6 -9 -3 -22 0 -28 6 -8
8 -11 8 -11 0z"/>
<path d="M8050 4169 c0 -5 5 -7 10 -4 6 3 10 8 10 11 0 2 -4 4 -10 4 -5 0 -10
-5 -10 -11z"/>
<path d="M7896 4161 c-3 -5 1 -14 9 -21 10 -9 15 -9 15 -1 0 6 -6 11 -12 11
-9 0 -8 4 2 10 9 6 10 10 3 10 -6 0 -14 -4 -17 -9z"/>
<path d="M7958 4163 c7 -3 16 -2 19 1 4 3 -2 6 -13 5 -11 0 -14 -3 -6 -6z"/>
<path d="M6705 4140 c-4 -7 -2 -16 6 -21 18 -11 23 -4 11 17 -7 12 -11 13 -17
4z"/>
<path d="M7143 4143 c9 -2 23 -2 30 0 6 3 -1 5 -18 5 -16 0 -22 -2 -12 -5z"/>
<path d="M7749 4126 c9 -11 9 -20 2 -35 -7 -13 -8 -22 -1 -26 5 -3 10 3 10 14
0 10 6 21 12 23 9 3 8 9 -4 21 -20 21 -35 23 -19 3z"/>
<path d="M7794 4129 c-3 -5 -2 -9 3 -9 4 0 19 -3 32 -7 16 -4 22 -2 18 4 -9
15 -46 23 -53 12z"/>
<path d="M8195 4130 c3 -5 14 -10 23 -10 15 0 15 2 2 10 -20 13 -33 13 -25 0z"/>
<path d="M7185 4120 c4 -6 11 -8 16 -5 14 9 11 15 -7 15 -8 0 -12 -5 -9 -10z"/>
<path d="M7980 4116 c0 -8 7 -17 16 -20 31 -12 38 -6 16 14 -25 24 -32 25 -32
6z"/>
<path d="M6862 4103 c2 -9 8 -18 15 -20 7 -3 9 3 6 16 -6 25 -26 28 -21 4z"/>
<path d="M7710 4100 c0 -11 5 -20 10 -20 6 0 10 9 10 20 0 11 -4 20 -10 20 -5
0 -10 -9 -10 -20z"/>
<path d="M7875 4110 c3 -5 10 -10 16 -10 5 0 9 5 9 10 0 6 -7 10 -16 10 -8 0
-12 -4 -9 -10z"/>
<path d="M8050 4116 c0 -2 7 -6 15 -10 8 -3 15 -1 15 4 0 6 -7 10 -15 10 -8 0
-15 -2 -15 -4z"/>
<path d="M6668 4103 c7 -3 16 -2 19 1 4 3 -2 6 -13 5 -11 0 -14 -3 -6 -6z"/>
<path d="M8150 4095 c-8 -9 -8 -15 -2 -15 12 0 26 19 19 26 -2 2 -10 -2 -17
-11z"/>
<path d="M6815 4090 c-3 -5 1 -10 9 -10 9 0 16 5 16 10 0 6 -4 10 -9 10 -6 0
-13 -4 -16 -10z"/>
<path d="M7935 4090 c-4 -6 -10 -8 -15 -5 -13 8 -23 -36 -11 -48 8 -8 11 -5
11 10 0 14 8 23 25 27 14 4 25 11 25 16 0 13 -27 13 -35 0z"/>
<path d="M6740 4080 c-8 -5 -10 -10 -5 -10 6 0 17 5 25 10 8 5 11 10 5 10 -5
0 -17 -5 -25 -10z"/>
<path d="M7803 4083 c15 -2 37 -2 50 0 12 2 0 4 -28 4 -27 0 -38 -2 -22 -4z"/>
<path d="M8198 4083 c7 -3 16 -2 19 1 4 3 -2 6 -13 5 -11 0 -14 -3 -6 -6z"/>
<path d="M8250 4085 c0 -5 4 -16 9 -23 6 -11 10 -10 15 4 3 9 4 19 1 22 -3 3
-5 -1 -5 -9 0 -11 -2 -11 -10 1 -5 8 -10 11 -10 5z"/>
<path d="M8072 4072 c-9 -3 -9 -6 0 -16 12 -13 58 -10 58 4 0 9 -41 18 -58 12z"/>
<path d="M6780 4060 l-25 -8 28 -1 c15 -1 27 4 27 9 0 6 -1 10 -2 9 -2 -1 -14
-5 -28 -9z"/>
<path d="M6830 4060 c0 -5 5 -10 10 -10 6 0 10 5 10 10 0 6 -4 10 -10 10 -5 0
-10 -4 -10 -10z"/>
<path d="M7845 4060 c-4 -6 5 -10 20 -10 15 0 24 4 20 10 -3 6 -12 10 -20 10
-8 0 -17 -4 -20 -10z"/>
<path d="M7965 4050 c-3 -5 -1 -10 4 -10 6 0 11 5 11 10 0 6 -2 10 -4 10 -3 0
-8 -4 -11 -10z"/>
<path d="M8145 4040 c3 -5 8 -10 11 -10 2 0 4 5 4 10 0 6 -5 10 -11 10 -5 0
-7 -4 -4 -10z"/>
<path d="M7100 4030 c0 -5 5 -10 10 -10 6 0 10 5 10 10 0 6 -4 10 -10 10 -5 0
-10 -4 -10 -10z"/>
<path d="M6728 4023 c6 -2 18 -2 25 0 6 3 1 5 -13 5 -14 0 -19 -2 -12 -5z"/>
<path d="M7845 4020 c-3 -5 3 -10 15 -10 12 0 18 5 15 10 -3 6 -10 10 -15 10
-5 0 -12 -4 -15 -10z"/>
<path d="M7921 4016 c-10 -12 -8 -13 8 -9 12 3 18 9 15 14 -7 12 -10 11 -23
-5z"/>
<path d="M7970 4010 c0 -5 5 -10 10 -10 6 0 10 5 10 10 0 6 -4 10 -10 10 -5 0
-10 -4 -10 -10z"/>
<path d="M8060 4016 c0 -2 7 -7 16 -10 8 -3 12 -2 9 4 -6 10 -25 14 -25 6z"/>
<path d="M8142 4004 c-12 -8 -22 -12 -22 -8 0 3 -6 1 -13 -5 -8 -6 -16 -9 -19
-6 -8 9 -6 -30 3 -41 5 -6 21 -10 36 -9 16 1 31 -3 35 -9 5 -7 8 -7 8 2 0 7 4
10 10 7 6 -3 7 1 3 10 -5 14 -8 14 -15 3 -7 -9 -8 -4 -3 15 3 18 2 26 -4 23
-5 -4 -12 -2 -16 4 -3 5 1 10 9 10 9 0 16 5 16 10 0 13 -2 13 -28 -6z m3 -41
c1 -15 -4 -19 -21 -19 -31 2 -39 12 -25 30 17 20 44 13 46 -11z"/>
<path d="M8117 3963 c3 -7 6 -13 8 -13 2 0 5 6 8 13 3 8 -1 14 -8 14 -7 0 -11
-6 -8 -14z"/>
<path d="M8205 4010 c-6 -9 1 -14 17 -11 4 0 5 -14 2 -32 l-5 -32 16 34 c8 19
13 36 10 39 -3 3 -5 2 -5 -3 0 -4 -6 -2 -14 4 -10 8 -16 9 -21 1z"/>
<path d="M7872 3961 c1 -28 5 -38 15 -34 16 6 17 29 3 38 -8 5 -7 11 1 21 9
11 8 14 -5 14 -12 0 -15 -9 -14 -39z"/>
<path d="M8180 3995 c0 -5 5 -17 10 -25 5 -8 10 -10 10 -5 0 6 -5 17 -10 25
-5 8 -10 11 -10 5z"/>
<path d="M7914 3953 c2 -16 6 -29 9 -30 21 -8 25 -1 16 27 -14 38 -27 39 -25
3z"/>
<path d="M8026 3935 c-3 -9 0 -15 8 -15 8 0 22 -3 32 -7 14 -5 13 -2 -4 15
-26 26 -28 26 -36 7z"/>
<path d="M8203 3929 c3 -9 0 -22 -6 -28 -8 -8 -8 -11 0 -11 16 0 23 25 11 41
-8 11 -9 11 -5 -2z"/>
<path d="M8099 3919 c-10 -6 -4 -9 19 -9 17 0 32 2 32 4 0 9 -39 13 -51 5z"/>
<path d="M7964 3911 c4 -5 0 -11 -6 -14 -7 -2 -10 -8 -6 -12 12 -13 38 3 32
20 -3 8 -10 15 -16 15 -5 0 -7 -4 -4 -9z"/>
<path d="M8000 3889 c0 -30 -2 -31 -30 -26 -16 4 -32 2 -35 -3 -4 -6 8 -10 27
-11 18 0 42 -5 53 -10 16 -7 14 -9 -12 -6 -18 2 -33 2 -33 -1 0 -17 37 -61 59
-70 l26 -10 -25 1 c-37 3 -35 -43 3 -61 31 -15 47 -9 47 19 0 21 16 26 23 7 3
-7 6 -3 6 10 1 13 -3 20 -9 17 -5 -3 -10 -2 -10 4 0 5 5 13 10 16 6 3 10 2 10
-4 0 -6 7 -8 16 -4 13 5 12 9 -7 29 -20 21 -20 24 -5 39 23 24 20 29 -21 44
-21 8 -42 19 -46 25 -5 6 -6 2 -2 -10 4 -14 0 -24 -10 -28 -11 -4 -15 2 -15
24 0 16 -4 32 -10 35 -6 4 -10 -7 -10 -26z m91 -43 c5 3 9 0 9 -6 0 -7 -6 -10
-14 -7 -8 3 -17 1 -19 -6 -2 -7 -8 -9 -12 -5 -4 4 -2 15 6 24 8 10 15 12 17 5
2 -6 8 -9 13 -5z m-61 -46 c0 -5 -4 -10 -10 -10 -5 0 -10 5 -10 10 0 6 5 10
10 10 6 0 10 -4 10 -10z m60 -16 c-9 -15 -40 -15 -40 1 0 10 8 14 23 11 12 -1
20 -7 17 -12z m-10 -44 c0 -5 -4 -10 -10 -10 -5 0 -7 -7 -4 -15 7 -17 -11 -21
-21 -5 -4 6 -10 8 -15 5 -10 -6 -25 14 -16 22 3 3 12 0 21 -7 12 -10 16 -9 21
4 7 18 24 22 24 6z"/>
<path d="M7785 3890 c3 -5 17 -10 31 -10 13 0 24 5 24 10 0 6 -14 10 -31 10
-17 0 -28 -4 -24 -10z"/>
<path d="M8091 3884 c14 -17 29 -17 50 -1 14 11 11 13 -22 13 -32 1 -37 -1
-28 -12z"/>
<path d="M8162 3877 c-13 -15 -10 -43 6 -59 9 -9 12 -9 12 0 0 7 -4 12 -8 12
-4 0 -8 9 -9 21 -1 14 3 19 12 15 9 -3 12 0 8 10 -6 17 -8 17 -21 1z"/>
<path d="M6891 3843 c-13 -15 -12 -16 18 -10 19 4 39 7 45 8 12 0 -24 17 -39
18 -5 0 -16 -7 -24 -16z"/>
<path d="M7740 3813 c14 -15 26 -30 28 -32 1 -3 8 1 14 7 9 9 8 12 -5 12 -9 0
-17 5 -17 10 0 7 6 7 19 0 11 -5 30 -10 43 -10 22 1 22 1 -4 15 -15 8 -44 18
-65 21 l-38 6 25 -29z"/>
<path d="M7835 3830 c3 -5 11 -10 16 -10 6 0 7 5 4 10 -3 6 -11 10 -16 10 -6
0 -7 -4 -4 -10z"/>
<path d="M8140 3790 c0 -5 4 -10 9 -10 6 0 13 5 16 10 3 6 -1 10 -9 10 -9 0
-16 -4 -16 -10z"/>
<path d="M8120 3729 c0 -11 5 -17 10 -14 6 3 10 13 10 21 0 8 -4 14 -10 14 -5
0 -10 -9 -10 -21z"/>
<path d="M8087 3686 c-4 -10 -1 -23 7 -31 12 -12 15 -11 20 11 4 15 5 29 1 32
-3 3 -5 -3 -6 -14 0 -19 -1 -19 -8 0 -7 18 -8 18 -14 2z"/>
<path d="M4240 4350 c0 -5 5 -10 11 -10 5 0 7 5 4 10 -3 6 -8 10 -11 10 -2 0
-4 -4 -4 -10z"/>
<path d="M7250 3941 c0 -6 4 -13 10 -16 6 -3 7 1 4 9 -7 18 -14 21 -14 7z"/>
<path d="M7650 3745 c0 -8 5 -15 10 -15 6 0 10 7 10 15 0 8 -4 15 -10 15 -5 0
-10 -7 -10 -15z"/>
<path d="M7480 3620 c0 -5 5 -10 10 -10 6 0 10 5 10 10 0 6 -4 10 -10 10 -5 0
-10 -4 -10 -10z"/>
<path d="M5680 2424 c0 -8 5 -12 10 -9 6 4 8 11 5 16 -9 14 -15 11 -15 -7z"/>
<path d="M6754 7641 c2 -9 10 -39 17 -67 11 -46 16 -53 53 -69 144 -63 358
-206 462 -311 213 -213 225 -427 34 -608 -39 -36 -67 -66 -62 -66 11 0 42 23
85 64 21 20 43 36 48 36 5 0 9 6 9 14 0 8 8 21 18 28 17 14 37 42 48 68 4 8
11 27 17 42 6 15 14 25 18 23 3 -3 4 7 1 22 -4 21 -2 25 12 20 14 -6 15 -3 5
14 -8 16 -8 23 1 29 16 10 27 160 11 160 -7 0 -10 4 -6 10 6 10 -32 98 -52
118 -7 7 -13 17 -13 22 0 22 -132 147 -225 216 -100 72 -432 251 -468 251 -11
0 -16 -6 -13 -16z"/>
<path d="M7225 6500 c-3 -6 1 -7 9 -4 18 7 21 14 7 14 -6 0 -13 -4 -16 -10z"/>
<path d="M3226 1575 c-3 -8 -16 -16 -28 -16 -17 -1 -18 -3 -6 -6 20 -5 64 22
50 31 -6 3 -12 -1 -16 -9z"/>
<path d="M5931 1544 c0 -11 3 -14 6 -6 3 7 2 16 -1 19 -3 4 -6 -2 -5 -13z"/>
<path d="M3272 1540 c3 -8 -2 -20 -11 -27 -22 -17 0 -16 23 0 17 12 17 14 0
28 -15 12 -17 12 -12 -1z"/>
<path d="M5910 1494 c0 -8 6 -14 14 -14 8 0 16 -5 18 -11 2 -7 8 -6 15 3 10
11 6 16 -17 25 -25 9 -30 9 -30 -3z"/>
<path d="M5872 1471 c2 -7 7 -12 11 -12 12 1 9 15 -3 20 -7 2 -11 -2 -8 -8z"/>
<path d="M3430 1450 c8 -5 20 -10 25 -10 6 0 3 5 -5 10 -8 5 -19 10 -25 10 -5
0 -3 -5 5 -10z"/>
<path d="M5894 1418 l-29 -32 27 17 c15 9 32 17 38 17 14 0 13 -18 -2 -23 -8
-2 -7 -3 2 -3 21 2 26 36 5 36 -9 0 -13 5 -10 10 12 19 -2 10 -31 -22z"/>
<path d="M5860 1430 c-8 -5 -11 -12 -8 -16 4 -3 14 1 23 10 18 17 9 21 -15 6z"/>
<path d="M5967 1433 c-3 -5 -1 -17 3 -28 6 -17 7 -16 12 8 5 25 -5 37 -15 20z"/>
<path d="M5826 1405 c4 -8 8 -15 10 -15 2 0 4 7 4 15 0 8 -4 15 -10 15 -5 0
-7 -7 -4 -15z"/>
<path d="M5692 1398 c1 -9 -6 -24 -17 -33 -20 -16 -20 -16 2 -5 29 14 38 29
23 43 -9 9 -11 8 -8 -5z"/>
<path d="M3848 1383 c7 -3 16 -2 19 1 4 3 -2 6 -13 5 -11 0 -14 -3 -6 -6z"/>
<path d="M5720 1370 c0 -5 5 -10 11 -10 5 0 7 5 4 10 -3 6 -8 10 -11 10 -2 0
-4 -4 -4 -10z"/>
<path d="M5780 1370 c0 -5 5 -10 11 -10 5 0 7 5 4 10 -3 6 -8 10 -11 10 -2 0
-4 -4 -4 -10z"/>
<path d="M5817 1367 c-3 -8 1 -14 8 -14 7 0 11 6 8 14 -3 7 -6 13 -8 13 -2 0
-5 -6 -8 -13z"/>
<path d="M5600 1355 c0 -8 4 -15 10 -15 5 0 7 7 4 15 -4 8 -8 15 -10 15 -2 0
-4 -7 -4 -15z"/>
<path d="M4010 1337 c-12 -21 -12 -21 6 -7 10 8 20 15 22 16 2 1 -1 4 -5 7 -5
3 -15 -4 -23 -16z"/>
<path d="M4078 1353 c7 -3 16 -2 19 1 4 3 -2 6 -13 5 -11 0 -14 -3 -6 -6z"/>
<path d="M5286 1345 c4 -8 10 -15 15 -15 4 0 6 7 3 15 -4 8 -10 15 -15 15 -4
0 -6 -7 -3 -15z"/>
<path d="M5335 1350 c-3 -5 -1 -10 4 -10 6 0 11 5 11 10 0 6 -2 10 -4 10 -3 0
-8 -4 -11 -10z"/>
<path d="M4178 1343 c7 -3 16 -2 19 1 4 3 -2 6 -13 5 -11 0 -14 -3 -6 -6z"/>
<path d="M4480 1342 c23 -4 24 -5 5 -13 -19 -7 -19 -8 2 -8 12 -1 24 3 27 8 7
10 -18 22 -42 20 -9 -1 -6 -4 8 -7z"/>
<path d="M5250 1341 c0 -5 7 -11 14 -14 10 -4 13 -1 9 9 -6 15 -23 19 -23 5z"/>
<path d="M4280 1333 c8 -3 21 -10 28 -16 9 -7 11 -6 6 7 -3 9 -16 16 -28 15
-14 0 -16 -2 -6 -6z"/>
<path d="M4610 1325 c0 -2 10 -10 23 -16 20 -11 21 -11 8 4 -13 16 -31 23 -31
12z"/>
<path d="M5220 1320 c0 -5 5 -10 10 -10 6 0 10 5 10 10 0 6 -4 10 -10 10 -5 0
-10 -4 -10 -10z"/>
<path d="M4160 1311 c0 -10 19 -25 25 -20 1 2 -3 10 -11 17 -8 7 -14 8 -14 3z"/>
<path d="M4064 1295 c8 -8 18 -15 22 -15 3 0 1 7 -6 15 -7 8 -17 15 -22 15 -5
0 -3 -7 6 -15z"/>
<path d="M4329 1293 c-13 -16 -12 -17 4 -4 9 7 17 15 17 17 0 8 -8 3 -21 -13z"/>
<path d="M4808 1303 c7 -3 16 -2 19 1 4 3 -2 6 -13 5 -11 0 -14 -3 -6 -6z"/>
<path d="M5185 1300 c-3 -6 1 -7 9 -4 18 7 21 14 7 14 -6 0 -13 -4 -16 -10z"/>
<path d="M5270 1300 c-9 -6 -10 -10 -3 -10 6 0 15 5 18 10 8 12 4 12 -15 0z"/>
<path d="M4620 1290 c8 -5 20 -10 25 -10 6 0 3 5 -5 10 -8 5 -19 10 -25 10 -5
0 -3 -5 5 -10z"/>
<path d="M4708 1293 c7 -3 16 -2 19 1 4 3 -2 6 -13 5 -11 0 -14 -3 -6 -6z"/>
</g>
</svg>
